%TF.GenerationSoftware,KiCad,Pcbnew,8.0.7*%
%TF.CreationDate,2025-01-27T22:31:33-06:00*%
%TF.ProjectId,teensy-acc-pcb,7465656e-7379-42d6-9163-632d7063622e,rev?*%
%TF.SameCoordinates,Original*%
%TF.FileFunction,Legend,Top*%
%TF.FilePolarity,Positive*%
%FSLAX46Y46*%
G04 Gerber Fmt 4.6, Leading zero omitted, Abs format (unit mm)*
G04 Created by KiCad (PCBNEW 8.0.7) date 2025-01-27 22:31:33*
%MOMM*%
%LPD*%
G01*
G04 APERTURE LIST*
%ADD10C,0.200000*%
%ADD11C,0.300000*%
%ADD12C,0.150000*%
%ADD13C,0.120000*%
G04 APERTURE END LIST*
D10*
X153290344Y-92000000D02*
X153242724Y-92142857D01*
X153242724Y-92142857D02*
X153242724Y-92380952D01*
X153242724Y-92380952D02*
X153290344Y-92476190D01*
X153290344Y-92476190D02*
X153337963Y-92523809D01*
X153337963Y-92523809D02*
X153433201Y-92571428D01*
X153433201Y-92571428D02*
X153528439Y-92571428D01*
X153528439Y-92571428D02*
X153623677Y-92523809D01*
X153623677Y-92523809D02*
X153671296Y-92476190D01*
X153671296Y-92476190D02*
X153718915Y-92380952D01*
X153718915Y-92380952D02*
X153766534Y-92190476D01*
X153766534Y-92190476D02*
X153814153Y-92095238D01*
X153814153Y-92095238D02*
X153861772Y-92047619D01*
X153861772Y-92047619D02*
X153957010Y-92000000D01*
X153957010Y-92000000D02*
X154052248Y-92000000D01*
X154052248Y-92000000D02*
X154147486Y-92047619D01*
X154147486Y-92047619D02*
X154195105Y-92095238D01*
X154195105Y-92095238D02*
X154242724Y-92190476D01*
X154242724Y-92190476D02*
X154242724Y-92428571D01*
X154242724Y-92428571D02*
X154195105Y-92571428D01*
X153242724Y-93000000D02*
X154242724Y-93000000D01*
X153766534Y-93000000D02*
X153766534Y-93571428D01*
X153242724Y-93571428D02*
X154242724Y-93571428D01*
X154242724Y-94238095D02*
X154242724Y-94428571D01*
X154242724Y-94428571D02*
X154195105Y-94523809D01*
X154195105Y-94523809D02*
X154099867Y-94619047D01*
X154099867Y-94619047D02*
X153909391Y-94666666D01*
X153909391Y-94666666D02*
X153576058Y-94666666D01*
X153576058Y-94666666D02*
X153385582Y-94619047D01*
X153385582Y-94619047D02*
X153290344Y-94523809D01*
X153290344Y-94523809D02*
X153242724Y-94428571D01*
X153242724Y-94428571D02*
X153242724Y-94238095D01*
X153242724Y-94238095D02*
X153290344Y-94142857D01*
X153290344Y-94142857D02*
X153385582Y-94047619D01*
X153385582Y-94047619D02*
X153576058Y-94000000D01*
X153576058Y-94000000D02*
X153909391Y-94000000D01*
X153909391Y-94000000D02*
X154099867Y-94047619D01*
X154099867Y-94047619D02*
X154195105Y-94142857D01*
X154195105Y-94142857D02*
X154242724Y-94238095D01*
X153242724Y-95666666D02*
X153718915Y-95333333D01*
X153242724Y-95095238D02*
X154242724Y-95095238D01*
X154242724Y-95095238D02*
X154242724Y-95476190D01*
X154242724Y-95476190D02*
X154195105Y-95571428D01*
X154195105Y-95571428D02*
X154147486Y-95619047D01*
X154147486Y-95619047D02*
X154052248Y-95666666D01*
X154052248Y-95666666D02*
X153909391Y-95666666D01*
X153909391Y-95666666D02*
X153814153Y-95619047D01*
X153814153Y-95619047D02*
X153766534Y-95571428D01*
X153766534Y-95571428D02*
X153718915Y-95476190D01*
X153718915Y-95476190D02*
X153718915Y-95095238D01*
X154242724Y-95952381D02*
X154242724Y-96523809D01*
X153242724Y-96238095D02*
X154242724Y-96238095D01*
X154242724Y-97476191D02*
X154242724Y-98047619D01*
X153242724Y-97761905D02*
X154242724Y-97761905D01*
X154242724Y-98571429D02*
X154242724Y-98761905D01*
X154242724Y-98761905D02*
X154195105Y-98857143D01*
X154195105Y-98857143D02*
X154099867Y-98952381D01*
X154099867Y-98952381D02*
X153909391Y-99000000D01*
X153909391Y-99000000D02*
X153576058Y-99000000D01*
X153576058Y-99000000D02*
X153385582Y-98952381D01*
X153385582Y-98952381D02*
X153290344Y-98857143D01*
X153290344Y-98857143D02*
X153242724Y-98761905D01*
X153242724Y-98761905D02*
X153242724Y-98571429D01*
X153242724Y-98571429D02*
X153290344Y-98476191D01*
X153290344Y-98476191D02*
X153385582Y-98380953D01*
X153385582Y-98380953D02*
X153576058Y-98333334D01*
X153576058Y-98333334D02*
X153909391Y-98333334D01*
X153909391Y-98333334D02*
X154099867Y-98380953D01*
X154099867Y-98380953D02*
X154195105Y-98476191D01*
X154195105Y-98476191D02*
X154242724Y-98571429D01*
X152585161Y-91380952D02*
X152632780Y-91285714D01*
X152632780Y-91285714D02*
X152632780Y-91142857D01*
X152632780Y-91142857D02*
X152585161Y-91000000D01*
X152585161Y-91000000D02*
X152489923Y-90904762D01*
X152489923Y-90904762D02*
X152394685Y-90857143D01*
X152394685Y-90857143D02*
X152204209Y-90809524D01*
X152204209Y-90809524D02*
X152061352Y-90809524D01*
X152061352Y-90809524D02*
X151870876Y-90857143D01*
X151870876Y-90857143D02*
X151775638Y-90904762D01*
X151775638Y-90904762D02*
X151680400Y-91000000D01*
X151680400Y-91000000D02*
X151632780Y-91142857D01*
X151632780Y-91142857D02*
X151632780Y-91238095D01*
X151632780Y-91238095D02*
X151680400Y-91380952D01*
X151680400Y-91380952D02*
X151728019Y-91428571D01*
X151728019Y-91428571D02*
X152061352Y-91428571D01*
X152061352Y-91428571D02*
X152061352Y-91238095D01*
X151632780Y-91857143D02*
X152632780Y-91857143D01*
X152632780Y-91857143D02*
X151632780Y-92428571D01*
X151632780Y-92428571D02*
X152632780Y-92428571D01*
X151632780Y-92904762D02*
X152632780Y-92904762D01*
X152632780Y-92904762D02*
X152632780Y-93142857D01*
X152632780Y-93142857D02*
X152585161Y-93285714D01*
X152585161Y-93285714D02*
X152489923Y-93380952D01*
X152489923Y-93380952D02*
X152394685Y-93428571D01*
X152394685Y-93428571D02*
X152204209Y-93476190D01*
X152204209Y-93476190D02*
X152061352Y-93476190D01*
X152061352Y-93476190D02*
X151870876Y-93428571D01*
X151870876Y-93428571D02*
X151775638Y-93380952D01*
X151775638Y-93380952D02*
X151680400Y-93285714D01*
X151680400Y-93285714D02*
X151632780Y-93142857D01*
X151632780Y-93142857D02*
X151632780Y-92904762D01*
X151680400Y-94619048D02*
X151632780Y-94761905D01*
X151632780Y-94761905D02*
X151632780Y-95000000D01*
X151632780Y-95000000D02*
X151680400Y-95095238D01*
X151680400Y-95095238D02*
X151728019Y-95142857D01*
X151728019Y-95142857D02*
X151823257Y-95190476D01*
X151823257Y-95190476D02*
X151918495Y-95190476D01*
X151918495Y-95190476D02*
X152013733Y-95142857D01*
X152013733Y-95142857D02*
X152061352Y-95095238D01*
X152061352Y-95095238D02*
X152108971Y-95000000D01*
X152108971Y-95000000D02*
X152156590Y-94809524D01*
X152156590Y-94809524D02*
X152204209Y-94714286D01*
X152204209Y-94714286D02*
X152251828Y-94666667D01*
X152251828Y-94666667D02*
X152347066Y-94619048D01*
X152347066Y-94619048D02*
X152442304Y-94619048D01*
X152442304Y-94619048D02*
X152537542Y-94666667D01*
X152537542Y-94666667D02*
X152585161Y-94714286D01*
X152585161Y-94714286D02*
X152632780Y-94809524D01*
X152632780Y-94809524D02*
X152632780Y-95047619D01*
X152632780Y-95047619D02*
X152585161Y-95190476D01*
X151728019Y-96190476D02*
X151680400Y-96142857D01*
X151680400Y-96142857D02*
X151632780Y-96000000D01*
X151632780Y-96000000D02*
X151632780Y-95904762D01*
X151632780Y-95904762D02*
X151680400Y-95761905D01*
X151680400Y-95761905D02*
X151775638Y-95666667D01*
X151775638Y-95666667D02*
X151870876Y-95619048D01*
X151870876Y-95619048D02*
X152061352Y-95571429D01*
X152061352Y-95571429D02*
X152204209Y-95571429D01*
X152204209Y-95571429D02*
X152394685Y-95619048D01*
X152394685Y-95619048D02*
X152489923Y-95666667D01*
X152489923Y-95666667D02*
X152585161Y-95761905D01*
X152585161Y-95761905D02*
X152632780Y-95904762D01*
X152632780Y-95904762D02*
X152632780Y-96000000D01*
X152632780Y-96000000D02*
X152585161Y-96142857D01*
X152585161Y-96142857D02*
X152537542Y-96190476D01*
X151632780Y-97190476D02*
X152108971Y-96857143D01*
X151632780Y-96619048D02*
X152632780Y-96619048D01*
X152632780Y-96619048D02*
X152632780Y-97000000D01*
X152632780Y-97000000D02*
X152585161Y-97095238D01*
X152585161Y-97095238D02*
X152537542Y-97142857D01*
X152537542Y-97142857D02*
X152442304Y-97190476D01*
X152442304Y-97190476D02*
X152299447Y-97190476D01*
X152299447Y-97190476D02*
X152204209Y-97142857D01*
X152204209Y-97142857D02*
X152156590Y-97095238D01*
X152156590Y-97095238D02*
X152108971Y-97000000D01*
X152108971Y-97000000D02*
X152108971Y-96619048D01*
X152156590Y-97619048D02*
X152156590Y-97952381D01*
X151632780Y-98095238D02*
X151632780Y-97619048D01*
X151632780Y-97619048D02*
X152632780Y-97619048D01*
X152632780Y-97619048D02*
X152632780Y-98095238D01*
X152632780Y-98428572D02*
X151632780Y-98666667D01*
X151632780Y-98666667D02*
X152347066Y-98857143D01*
X152347066Y-98857143D02*
X151632780Y-99047619D01*
X151632780Y-99047619D02*
X152632780Y-99285715D01*
X151680400Y-99619048D02*
X151632780Y-99761905D01*
X151632780Y-99761905D02*
X151632780Y-100000000D01*
X151632780Y-100000000D02*
X151680400Y-100095238D01*
X151680400Y-100095238D02*
X151728019Y-100142857D01*
X151728019Y-100142857D02*
X151823257Y-100190476D01*
X151823257Y-100190476D02*
X151918495Y-100190476D01*
X151918495Y-100190476D02*
X152013733Y-100142857D01*
X152013733Y-100142857D02*
X152061352Y-100095238D01*
X152061352Y-100095238D02*
X152108971Y-100000000D01*
X152108971Y-100000000D02*
X152156590Y-99809524D01*
X152156590Y-99809524D02*
X152204209Y-99714286D01*
X152204209Y-99714286D02*
X152251828Y-99666667D01*
X152251828Y-99666667D02*
X152347066Y-99619048D01*
X152347066Y-99619048D02*
X152442304Y-99619048D01*
X152442304Y-99619048D02*
X152537542Y-99666667D01*
X152537542Y-99666667D02*
X152585161Y-99714286D01*
X152585161Y-99714286D02*
X152632780Y-99809524D01*
X152632780Y-99809524D02*
X152632780Y-100047619D01*
X152632780Y-100047619D02*
X152585161Y-100190476D01*
X86709656Y-98999999D02*
X86757275Y-98857142D01*
X86757275Y-98857142D02*
X86757275Y-98619047D01*
X86757275Y-98619047D02*
X86709656Y-98523809D01*
X86709656Y-98523809D02*
X86662036Y-98476190D01*
X86662036Y-98476190D02*
X86566798Y-98428571D01*
X86566798Y-98428571D02*
X86471560Y-98428571D01*
X86471560Y-98428571D02*
X86376322Y-98476190D01*
X86376322Y-98476190D02*
X86328703Y-98523809D01*
X86328703Y-98523809D02*
X86281084Y-98619047D01*
X86281084Y-98619047D02*
X86233465Y-98809523D01*
X86233465Y-98809523D02*
X86185846Y-98904761D01*
X86185846Y-98904761D02*
X86138227Y-98952380D01*
X86138227Y-98952380D02*
X86042989Y-98999999D01*
X86042989Y-98999999D02*
X85947751Y-98999999D01*
X85947751Y-98999999D02*
X85852513Y-98952380D01*
X85852513Y-98952380D02*
X85804894Y-98904761D01*
X85804894Y-98904761D02*
X85757275Y-98809523D01*
X85757275Y-98809523D02*
X85757275Y-98571428D01*
X85757275Y-98571428D02*
X85804894Y-98428571D01*
X86757275Y-97999999D02*
X85757275Y-97999999D01*
X86233465Y-97999999D02*
X86233465Y-97428571D01*
X86757275Y-97428571D02*
X85757275Y-97428571D01*
X85757275Y-96761904D02*
X85757275Y-96571428D01*
X85757275Y-96571428D02*
X85804894Y-96476190D01*
X85804894Y-96476190D02*
X85900132Y-96380952D01*
X85900132Y-96380952D02*
X86090608Y-96333333D01*
X86090608Y-96333333D02*
X86423941Y-96333333D01*
X86423941Y-96333333D02*
X86614417Y-96380952D01*
X86614417Y-96380952D02*
X86709656Y-96476190D01*
X86709656Y-96476190D02*
X86757275Y-96571428D01*
X86757275Y-96571428D02*
X86757275Y-96761904D01*
X86757275Y-96761904D02*
X86709656Y-96857142D01*
X86709656Y-96857142D02*
X86614417Y-96952380D01*
X86614417Y-96952380D02*
X86423941Y-96999999D01*
X86423941Y-96999999D02*
X86090608Y-96999999D01*
X86090608Y-96999999D02*
X85900132Y-96952380D01*
X85900132Y-96952380D02*
X85804894Y-96857142D01*
X85804894Y-96857142D02*
X85757275Y-96761904D01*
X86757275Y-95333333D02*
X86281084Y-95666666D01*
X86757275Y-95904761D02*
X85757275Y-95904761D01*
X85757275Y-95904761D02*
X85757275Y-95523809D01*
X85757275Y-95523809D02*
X85804894Y-95428571D01*
X85804894Y-95428571D02*
X85852513Y-95380952D01*
X85852513Y-95380952D02*
X85947751Y-95333333D01*
X85947751Y-95333333D02*
X86090608Y-95333333D01*
X86090608Y-95333333D02*
X86185846Y-95380952D01*
X86185846Y-95380952D02*
X86233465Y-95428571D01*
X86233465Y-95428571D02*
X86281084Y-95523809D01*
X86281084Y-95523809D02*
X86281084Y-95904761D01*
X85757275Y-95047618D02*
X85757275Y-94476190D01*
X86757275Y-94761904D02*
X85757275Y-94761904D01*
X85757275Y-93523808D02*
X85757275Y-92952380D01*
X86757275Y-93238094D02*
X85757275Y-93238094D01*
X85757275Y-92428570D02*
X85757275Y-92238094D01*
X85757275Y-92238094D02*
X85804894Y-92142856D01*
X85804894Y-92142856D02*
X85900132Y-92047618D01*
X85900132Y-92047618D02*
X86090608Y-91999999D01*
X86090608Y-91999999D02*
X86423941Y-91999999D01*
X86423941Y-91999999D02*
X86614417Y-92047618D01*
X86614417Y-92047618D02*
X86709656Y-92142856D01*
X86709656Y-92142856D02*
X86757275Y-92238094D01*
X86757275Y-92238094D02*
X86757275Y-92428570D01*
X86757275Y-92428570D02*
X86709656Y-92523808D01*
X86709656Y-92523808D02*
X86614417Y-92619046D01*
X86614417Y-92619046D02*
X86423941Y-92666665D01*
X86423941Y-92666665D02*
X86090608Y-92666665D01*
X86090608Y-92666665D02*
X85900132Y-92619046D01*
X85900132Y-92619046D02*
X85804894Y-92523808D01*
X85804894Y-92523808D02*
X85757275Y-92428570D01*
X87414838Y-99619047D02*
X87367219Y-99714285D01*
X87367219Y-99714285D02*
X87367219Y-99857142D01*
X87367219Y-99857142D02*
X87414838Y-99999999D01*
X87414838Y-99999999D02*
X87510076Y-100095237D01*
X87510076Y-100095237D02*
X87605314Y-100142856D01*
X87605314Y-100142856D02*
X87795790Y-100190475D01*
X87795790Y-100190475D02*
X87938647Y-100190475D01*
X87938647Y-100190475D02*
X88129123Y-100142856D01*
X88129123Y-100142856D02*
X88224361Y-100095237D01*
X88224361Y-100095237D02*
X88319600Y-99999999D01*
X88319600Y-99999999D02*
X88367219Y-99857142D01*
X88367219Y-99857142D02*
X88367219Y-99761904D01*
X88367219Y-99761904D02*
X88319600Y-99619047D01*
X88319600Y-99619047D02*
X88271980Y-99571428D01*
X88271980Y-99571428D02*
X87938647Y-99571428D01*
X87938647Y-99571428D02*
X87938647Y-99761904D01*
X88367219Y-99142856D02*
X87367219Y-99142856D01*
X87367219Y-99142856D02*
X88367219Y-98571428D01*
X88367219Y-98571428D02*
X87367219Y-98571428D01*
X88367219Y-98095237D02*
X87367219Y-98095237D01*
X87367219Y-98095237D02*
X87367219Y-97857142D01*
X87367219Y-97857142D02*
X87414838Y-97714285D01*
X87414838Y-97714285D02*
X87510076Y-97619047D01*
X87510076Y-97619047D02*
X87605314Y-97571428D01*
X87605314Y-97571428D02*
X87795790Y-97523809D01*
X87795790Y-97523809D02*
X87938647Y-97523809D01*
X87938647Y-97523809D02*
X88129123Y-97571428D01*
X88129123Y-97571428D02*
X88224361Y-97619047D01*
X88224361Y-97619047D02*
X88319600Y-97714285D01*
X88319600Y-97714285D02*
X88367219Y-97857142D01*
X88367219Y-97857142D02*
X88367219Y-98095237D01*
X88319600Y-96380951D02*
X88367219Y-96238094D01*
X88367219Y-96238094D02*
X88367219Y-95999999D01*
X88367219Y-95999999D02*
X88319600Y-95904761D01*
X88319600Y-95904761D02*
X88271980Y-95857142D01*
X88271980Y-95857142D02*
X88176742Y-95809523D01*
X88176742Y-95809523D02*
X88081504Y-95809523D01*
X88081504Y-95809523D02*
X87986266Y-95857142D01*
X87986266Y-95857142D02*
X87938647Y-95904761D01*
X87938647Y-95904761D02*
X87891028Y-95999999D01*
X87891028Y-95999999D02*
X87843409Y-96190475D01*
X87843409Y-96190475D02*
X87795790Y-96285713D01*
X87795790Y-96285713D02*
X87748171Y-96333332D01*
X87748171Y-96333332D02*
X87652933Y-96380951D01*
X87652933Y-96380951D02*
X87557695Y-96380951D01*
X87557695Y-96380951D02*
X87462457Y-96333332D01*
X87462457Y-96333332D02*
X87414838Y-96285713D01*
X87414838Y-96285713D02*
X87367219Y-96190475D01*
X87367219Y-96190475D02*
X87367219Y-95952380D01*
X87367219Y-95952380D02*
X87414838Y-95809523D01*
X88271980Y-94809523D02*
X88319600Y-94857142D01*
X88319600Y-94857142D02*
X88367219Y-94999999D01*
X88367219Y-94999999D02*
X88367219Y-95095237D01*
X88367219Y-95095237D02*
X88319600Y-95238094D01*
X88319600Y-95238094D02*
X88224361Y-95333332D01*
X88224361Y-95333332D02*
X88129123Y-95380951D01*
X88129123Y-95380951D02*
X87938647Y-95428570D01*
X87938647Y-95428570D02*
X87795790Y-95428570D01*
X87795790Y-95428570D02*
X87605314Y-95380951D01*
X87605314Y-95380951D02*
X87510076Y-95333332D01*
X87510076Y-95333332D02*
X87414838Y-95238094D01*
X87414838Y-95238094D02*
X87367219Y-95095237D01*
X87367219Y-95095237D02*
X87367219Y-94999999D01*
X87367219Y-94999999D02*
X87414838Y-94857142D01*
X87414838Y-94857142D02*
X87462457Y-94809523D01*
X88367219Y-93809523D02*
X87891028Y-94142856D01*
X88367219Y-94380951D02*
X87367219Y-94380951D01*
X87367219Y-94380951D02*
X87367219Y-93999999D01*
X87367219Y-93999999D02*
X87414838Y-93904761D01*
X87414838Y-93904761D02*
X87462457Y-93857142D01*
X87462457Y-93857142D02*
X87557695Y-93809523D01*
X87557695Y-93809523D02*
X87700552Y-93809523D01*
X87700552Y-93809523D02*
X87795790Y-93857142D01*
X87795790Y-93857142D02*
X87843409Y-93904761D01*
X87843409Y-93904761D02*
X87891028Y-93999999D01*
X87891028Y-93999999D02*
X87891028Y-94380951D01*
X87843409Y-93380951D02*
X87843409Y-93047618D01*
X88367219Y-92904761D02*
X88367219Y-93380951D01*
X88367219Y-93380951D02*
X87367219Y-93380951D01*
X87367219Y-93380951D02*
X87367219Y-92904761D01*
X87367219Y-92571427D02*
X88367219Y-92333332D01*
X88367219Y-92333332D02*
X87652933Y-92142856D01*
X87652933Y-92142856D02*
X88367219Y-91952380D01*
X88367219Y-91952380D02*
X87367219Y-91714285D01*
X88319600Y-91380951D02*
X88367219Y-91238094D01*
X88367219Y-91238094D02*
X88367219Y-90999999D01*
X88367219Y-90999999D02*
X88319600Y-90904761D01*
X88319600Y-90904761D02*
X88271980Y-90857142D01*
X88271980Y-90857142D02*
X88176742Y-90809523D01*
X88176742Y-90809523D02*
X88081504Y-90809523D01*
X88081504Y-90809523D02*
X87986266Y-90857142D01*
X87986266Y-90857142D02*
X87938647Y-90904761D01*
X87938647Y-90904761D02*
X87891028Y-90999999D01*
X87891028Y-90999999D02*
X87843409Y-91190475D01*
X87843409Y-91190475D02*
X87795790Y-91285713D01*
X87795790Y-91285713D02*
X87748171Y-91333332D01*
X87748171Y-91333332D02*
X87652933Y-91380951D01*
X87652933Y-91380951D02*
X87557695Y-91380951D01*
X87557695Y-91380951D02*
X87462457Y-91333332D01*
X87462457Y-91333332D02*
X87414838Y-91285713D01*
X87414838Y-91285713D02*
X87367219Y-91190475D01*
X87367219Y-91190475D02*
X87367219Y-90952380D01*
X87367219Y-90952380D02*
X87414838Y-90809523D01*
D11*
X94554510Y-94885912D02*
X94554510Y-93385912D01*
X94554510Y-93385912D02*
X95411653Y-94885912D01*
X95411653Y-94885912D02*
X95411653Y-93385912D01*
X95983082Y-93385912D02*
X96983082Y-93385912D01*
X96983082Y-93385912D02*
X95983082Y-94885912D01*
X95983082Y-94885912D02*
X96983082Y-94885912D01*
X97840225Y-93385912D02*
X97983082Y-93385912D01*
X97983082Y-93385912D02*
X98125939Y-93457341D01*
X98125939Y-93457341D02*
X98197368Y-93528769D01*
X98197368Y-93528769D02*
X98268796Y-93671626D01*
X98268796Y-93671626D02*
X98340225Y-93957341D01*
X98340225Y-93957341D02*
X98340225Y-94314484D01*
X98340225Y-94314484D02*
X98268796Y-94600198D01*
X98268796Y-94600198D02*
X98197368Y-94743055D01*
X98197368Y-94743055D02*
X98125939Y-94814484D01*
X98125939Y-94814484D02*
X97983082Y-94885912D01*
X97983082Y-94885912D02*
X97840225Y-94885912D01*
X97840225Y-94885912D02*
X97697368Y-94814484D01*
X97697368Y-94814484D02*
X97625939Y-94743055D01*
X97625939Y-94743055D02*
X97554510Y-94600198D01*
X97554510Y-94600198D02*
X97483082Y-94314484D01*
X97483082Y-94314484D02*
X97483082Y-93957341D01*
X97483082Y-93957341D02*
X97554510Y-93671626D01*
X97554510Y-93671626D02*
X97625939Y-93528769D01*
X97625939Y-93528769D02*
X97697368Y-93457341D01*
X97697368Y-93457341D02*
X97840225Y-93385912D01*
X98983081Y-94885912D02*
X98983081Y-93385912D01*
X98983081Y-93385912D02*
X99554510Y-93385912D01*
X99554510Y-93385912D02*
X99697367Y-93457341D01*
X99697367Y-93457341D02*
X99768796Y-93528769D01*
X99768796Y-93528769D02*
X99840224Y-93671626D01*
X99840224Y-93671626D02*
X99840224Y-93885912D01*
X99840224Y-93885912D02*
X99768796Y-94028769D01*
X99768796Y-94028769D02*
X99697367Y-94100198D01*
X99697367Y-94100198D02*
X99554510Y-94171626D01*
X99554510Y-94171626D02*
X98983081Y-94171626D01*
X94483082Y-95943685D02*
X94554510Y-95872257D01*
X94554510Y-95872257D02*
X94697368Y-95800828D01*
X94697368Y-95800828D02*
X95054510Y-95800828D01*
X95054510Y-95800828D02*
X95197368Y-95872257D01*
X95197368Y-95872257D02*
X95268796Y-95943685D01*
X95268796Y-95943685D02*
X95340225Y-96086542D01*
X95340225Y-96086542D02*
X95340225Y-96229400D01*
X95340225Y-96229400D02*
X95268796Y-96443685D01*
X95268796Y-96443685D02*
X94411653Y-97300828D01*
X94411653Y-97300828D02*
X95340225Y-97300828D01*
X96268796Y-95800828D02*
X96411653Y-95800828D01*
X96411653Y-95800828D02*
X96554510Y-95872257D01*
X96554510Y-95872257D02*
X96625939Y-95943685D01*
X96625939Y-95943685D02*
X96697367Y-96086542D01*
X96697367Y-96086542D02*
X96768796Y-96372257D01*
X96768796Y-96372257D02*
X96768796Y-96729400D01*
X96768796Y-96729400D02*
X96697367Y-97015114D01*
X96697367Y-97015114D02*
X96625939Y-97157971D01*
X96625939Y-97157971D02*
X96554510Y-97229400D01*
X96554510Y-97229400D02*
X96411653Y-97300828D01*
X96411653Y-97300828D02*
X96268796Y-97300828D01*
X96268796Y-97300828D02*
X96125939Y-97229400D01*
X96125939Y-97229400D02*
X96054510Y-97157971D01*
X96054510Y-97157971D02*
X95983081Y-97015114D01*
X95983081Y-97015114D02*
X95911653Y-96729400D01*
X95911653Y-96729400D02*
X95911653Y-96372257D01*
X95911653Y-96372257D02*
X95983081Y-96086542D01*
X95983081Y-96086542D02*
X96054510Y-95943685D01*
X96054510Y-95943685D02*
X96125939Y-95872257D01*
X96125939Y-95872257D02*
X96268796Y-95800828D01*
X97340224Y-95943685D02*
X97411652Y-95872257D01*
X97411652Y-95872257D02*
X97554510Y-95800828D01*
X97554510Y-95800828D02*
X97911652Y-95800828D01*
X97911652Y-95800828D02*
X98054510Y-95872257D01*
X98054510Y-95872257D02*
X98125938Y-95943685D01*
X98125938Y-95943685D02*
X98197367Y-96086542D01*
X98197367Y-96086542D02*
X98197367Y-96229400D01*
X98197367Y-96229400D02*
X98125938Y-96443685D01*
X98125938Y-96443685D02*
X97268795Y-97300828D01*
X97268795Y-97300828D02*
X98197367Y-97300828D01*
X99554509Y-95800828D02*
X98840223Y-95800828D01*
X98840223Y-95800828D02*
X98768795Y-96515114D01*
X98768795Y-96515114D02*
X98840223Y-96443685D01*
X98840223Y-96443685D02*
X98983081Y-96372257D01*
X98983081Y-96372257D02*
X99340223Y-96372257D01*
X99340223Y-96372257D02*
X99483081Y-96443685D01*
X99483081Y-96443685D02*
X99554509Y-96515114D01*
X99554509Y-96515114D02*
X99625938Y-96657971D01*
X99625938Y-96657971D02*
X99625938Y-97015114D01*
X99625938Y-97015114D02*
X99554509Y-97157971D01*
X99554509Y-97157971D02*
X99483081Y-97229400D01*
X99483081Y-97229400D02*
X99340223Y-97300828D01*
X99340223Y-97300828D02*
X98983081Y-97300828D01*
X98983081Y-97300828D02*
X98840223Y-97229400D01*
X98840223Y-97229400D02*
X98768795Y-97157971D01*
X138411653Y-99157971D02*
X138340225Y-99229400D01*
X138340225Y-99229400D02*
X138125939Y-99300828D01*
X138125939Y-99300828D02*
X137983082Y-99300828D01*
X137983082Y-99300828D02*
X137768796Y-99229400D01*
X137768796Y-99229400D02*
X137625939Y-99086542D01*
X137625939Y-99086542D02*
X137554510Y-98943685D01*
X137554510Y-98943685D02*
X137483082Y-98657971D01*
X137483082Y-98657971D02*
X137483082Y-98443685D01*
X137483082Y-98443685D02*
X137554510Y-98157971D01*
X137554510Y-98157971D02*
X137625939Y-98015114D01*
X137625939Y-98015114D02*
X137768796Y-97872257D01*
X137768796Y-97872257D02*
X137983082Y-97800828D01*
X137983082Y-97800828D02*
X138125939Y-97800828D01*
X138125939Y-97800828D02*
X138340225Y-97872257D01*
X138340225Y-97872257D02*
X138411653Y-97943685D01*
X138911653Y-97800828D02*
X139268796Y-99300828D01*
X139268796Y-99300828D02*
X139554510Y-98229400D01*
X139554510Y-98229400D02*
X139840225Y-99300828D01*
X139840225Y-99300828D02*
X140197368Y-97800828D01*
X141483082Y-97800828D02*
X140768796Y-97800828D01*
X140768796Y-97800828D02*
X140697368Y-98515114D01*
X140697368Y-98515114D02*
X140768796Y-98443685D01*
X140768796Y-98443685D02*
X140911654Y-98372257D01*
X140911654Y-98372257D02*
X141268796Y-98372257D01*
X141268796Y-98372257D02*
X141411654Y-98443685D01*
X141411654Y-98443685D02*
X141483082Y-98515114D01*
X141483082Y-98515114D02*
X141554511Y-98657971D01*
X141554511Y-98657971D02*
X141554511Y-99015114D01*
X141554511Y-99015114D02*
X141483082Y-99157971D01*
X141483082Y-99157971D02*
X141411654Y-99229400D01*
X141411654Y-99229400D02*
X141268796Y-99300828D01*
X141268796Y-99300828D02*
X140911654Y-99300828D01*
X140911654Y-99300828D02*
X140768796Y-99229400D01*
X140768796Y-99229400D02*
X140697368Y-99157971D01*
X142197367Y-98729400D02*
X143340225Y-98729400D01*
X142768796Y-99300828D02*
X142768796Y-98157971D01*
X123911653Y-99157971D02*
X123840225Y-99229400D01*
X123840225Y-99229400D02*
X123625939Y-99300828D01*
X123625939Y-99300828D02*
X123483082Y-99300828D01*
X123483082Y-99300828D02*
X123268796Y-99229400D01*
X123268796Y-99229400D02*
X123125939Y-99086542D01*
X123125939Y-99086542D02*
X123054510Y-98943685D01*
X123054510Y-98943685D02*
X122983082Y-98657971D01*
X122983082Y-98657971D02*
X122983082Y-98443685D01*
X122983082Y-98443685D02*
X123054510Y-98157971D01*
X123054510Y-98157971D02*
X123125939Y-98015114D01*
X123125939Y-98015114D02*
X123268796Y-97872257D01*
X123268796Y-97872257D02*
X123483082Y-97800828D01*
X123483082Y-97800828D02*
X123625939Y-97800828D01*
X123625939Y-97800828D02*
X123840225Y-97872257D01*
X123840225Y-97872257D02*
X123911653Y-97943685D01*
X124411653Y-97800828D02*
X124768796Y-99300828D01*
X124768796Y-99300828D02*
X125054510Y-98229400D01*
X125054510Y-98229400D02*
X125340225Y-99300828D01*
X125340225Y-99300828D02*
X125697368Y-97800828D01*
X126911654Y-97800828D02*
X126625939Y-97800828D01*
X126625939Y-97800828D02*
X126483082Y-97872257D01*
X126483082Y-97872257D02*
X126411654Y-97943685D01*
X126411654Y-97943685D02*
X126268796Y-98157971D01*
X126268796Y-98157971D02*
X126197368Y-98443685D01*
X126197368Y-98443685D02*
X126197368Y-99015114D01*
X126197368Y-99015114D02*
X126268796Y-99157971D01*
X126268796Y-99157971D02*
X126340225Y-99229400D01*
X126340225Y-99229400D02*
X126483082Y-99300828D01*
X126483082Y-99300828D02*
X126768796Y-99300828D01*
X126768796Y-99300828D02*
X126911654Y-99229400D01*
X126911654Y-99229400D02*
X126983082Y-99157971D01*
X126983082Y-99157971D02*
X127054511Y-99015114D01*
X127054511Y-99015114D02*
X127054511Y-98657971D01*
X127054511Y-98657971D02*
X126983082Y-98515114D01*
X126983082Y-98515114D02*
X126911654Y-98443685D01*
X126911654Y-98443685D02*
X126768796Y-98372257D01*
X126768796Y-98372257D02*
X126483082Y-98372257D01*
X126483082Y-98372257D02*
X126340225Y-98443685D01*
X126340225Y-98443685D02*
X126268796Y-98515114D01*
X126268796Y-98515114D02*
X126197368Y-98657971D01*
X139411653Y-91657971D02*
X139340225Y-91729400D01*
X139340225Y-91729400D02*
X139125939Y-91800828D01*
X139125939Y-91800828D02*
X138983082Y-91800828D01*
X138983082Y-91800828D02*
X138768796Y-91729400D01*
X138768796Y-91729400D02*
X138625939Y-91586542D01*
X138625939Y-91586542D02*
X138554510Y-91443685D01*
X138554510Y-91443685D02*
X138483082Y-91157971D01*
X138483082Y-91157971D02*
X138483082Y-90943685D01*
X138483082Y-90943685D02*
X138554510Y-90657971D01*
X138554510Y-90657971D02*
X138625939Y-90515114D01*
X138625939Y-90515114D02*
X138768796Y-90372257D01*
X138768796Y-90372257D02*
X138983082Y-90300828D01*
X138983082Y-90300828D02*
X139125939Y-90300828D01*
X139125939Y-90300828D02*
X139340225Y-90372257D01*
X139340225Y-90372257D02*
X139411653Y-90443685D01*
X139911653Y-90300828D02*
X140268796Y-91800828D01*
X140268796Y-91800828D02*
X140554510Y-90729400D01*
X140554510Y-90729400D02*
X140840225Y-91800828D01*
X140840225Y-91800828D02*
X141197368Y-90300828D01*
X142483082Y-90300828D02*
X141768796Y-90300828D01*
X141768796Y-90300828D02*
X141697368Y-91015114D01*
X141697368Y-91015114D02*
X141768796Y-90943685D01*
X141768796Y-90943685D02*
X141911654Y-90872257D01*
X141911654Y-90872257D02*
X142268796Y-90872257D01*
X142268796Y-90872257D02*
X142411654Y-90943685D01*
X142411654Y-90943685D02*
X142483082Y-91015114D01*
X142483082Y-91015114D02*
X142554511Y-91157971D01*
X142554511Y-91157971D02*
X142554511Y-91515114D01*
X142554511Y-91515114D02*
X142483082Y-91657971D01*
X142483082Y-91657971D02*
X142411654Y-91729400D01*
X142411654Y-91729400D02*
X142268796Y-91800828D01*
X142268796Y-91800828D02*
X141911654Y-91800828D01*
X141911654Y-91800828D02*
X141768796Y-91729400D01*
X141768796Y-91729400D02*
X141697368Y-91657971D01*
X128911653Y-91657971D02*
X128840225Y-91729400D01*
X128840225Y-91729400D02*
X128625939Y-91800828D01*
X128625939Y-91800828D02*
X128483082Y-91800828D01*
X128483082Y-91800828D02*
X128268796Y-91729400D01*
X128268796Y-91729400D02*
X128125939Y-91586542D01*
X128125939Y-91586542D02*
X128054510Y-91443685D01*
X128054510Y-91443685D02*
X127983082Y-91157971D01*
X127983082Y-91157971D02*
X127983082Y-90943685D01*
X127983082Y-90943685D02*
X128054510Y-90657971D01*
X128054510Y-90657971D02*
X128125939Y-90515114D01*
X128125939Y-90515114D02*
X128268796Y-90372257D01*
X128268796Y-90372257D02*
X128483082Y-90300828D01*
X128483082Y-90300828D02*
X128625939Y-90300828D01*
X128625939Y-90300828D02*
X128840225Y-90372257D01*
X128840225Y-90372257D02*
X128911653Y-90443685D01*
X129411653Y-90300828D02*
X129768796Y-91800828D01*
X129768796Y-91800828D02*
X130054510Y-90729400D01*
X130054510Y-90729400D02*
X130340225Y-91800828D01*
X130340225Y-91800828D02*
X130697368Y-90300828D01*
X131911654Y-90800828D02*
X131911654Y-91800828D01*
X131554511Y-90229400D02*
X131197368Y-91300828D01*
X131197368Y-91300828D02*
X132125939Y-91300828D01*
X118911653Y-91657971D02*
X118840225Y-91729400D01*
X118840225Y-91729400D02*
X118625939Y-91800828D01*
X118625939Y-91800828D02*
X118483082Y-91800828D01*
X118483082Y-91800828D02*
X118268796Y-91729400D01*
X118268796Y-91729400D02*
X118125939Y-91586542D01*
X118125939Y-91586542D02*
X118054510Y-91443685D01*
X118054510Y-91443685D02*
X117983082Y-91157971D01*
X117983082Y-91157971D02*
X117983082Y-90943685D01*
X117983082Y-90943685D02*
X118054510Y-90657971D01*
X118054510Y-90657971D02*
X118125939Y-90515114D01*
X118125939Y-90515114D02*
X118268796Y-90372257D01*
X118268796Y-90372257D02*
X118483082Y-90300828D01*
X118483082Y-90300828D02*
X118625939Y-90300828D01*
X118625939Y-90300828D02*
X118840225Y-90372257D01*
X118840225Y-90372257D02*
X118911653Y-90443685D01*
X119411653Y-90300828D02*
X119768796Y-91800828D01*
X119768796Y-91800828D02*
X120054510Y-90729400D01*
X120054510Y-90729400D02*
X120340225Y-91800828D01*
X120340225Y-91800828D02*
X120697368Y-90300828D01*
X121125939Y-90300828D02*
X122054511Y-90300828D01*
X122054511Y-90300828D02*
X121554511Y-90872257D01*
X121554511Y-90872257D02*
X121768796Y-90872257D01*
X121768796Y-90872257D02*
X121911654Y-90943685D01*
X121911654Y-90943685D02*
X121983082Y-91015114D01*
X121983082Y-91015114D02*
X122054511Y-91157971D01*
X122054511Y-91157971D02*
X122054511Y-91515114D01*
X122054511Y-91515114D02*
X121983082Y-91657971D01*
X121983082Y-91657971D02*
X121911654Y-91729400D01*
X121911654Y-91729400D02*
X121768796Y-91800828D01*
X121768796Y-91800828D02*
X121340225Y-91800828D01*
X121340225Y-91800828D02*
X121197368Y-91729400D01*
X121197368Y-91729400D02*
X121125939Y-91657971D01*
X109411653Y-91657971D02*
X109340225Y-91729400D01*
X109340225Y-91729400D02*
X109125939Y-91800828D01*
X109125939Y-91800828D02*
X108983082Y-91800828D01*
X108983082Y-91800828D02*
X108768796Y-91729400D01*
X108768796Y-91729400D02*
X108625939Y-91586542D01*
X108625939Y-91586542D02*
X108554510Y-91443685D01*
X108554510Y-91443685D02*
X108483082Y-91157971D01*
X108483082Y-91157971D02*
X108483082Y-90943685D01*
X108483082Y-90943685D02*
X108554510Y-90657971D01*
X108554510Y-90657971D02*
X108625939Y-90515114D01*
X108625939Y-90515114D02*
X108768796Y-90372257D01*
X108768796Y-90372257D02*
X108983082Y-90300828D01*
X108983082Y-90300828D02*
X109125939Y-90300828D01*
X109125939Y-90300828D02*
X109340225Y-90372257D01*
X109340225Y-90372257D02*
X109411653Y-90443685D01*
X109911653Y-90300828D02*
X110268796Y-91800828D01*
X110268796Y-91800828D02*
X110554510Y-90729400D01*
X110554510Y-90729400D02*
X110840225Y-91800828D01*
X110840225Y-91800828D02*
X111197368Y-90300828D01*
X111697368Y-90443685D02*
X111768796Y-90372257D01*
X111768796Y-90372257D02*
X111911654Y-90300828D01*
X111911654Y-90300828D02*
X112268796Y-90300828D01*
X112268796Y-90300828D02*
X112411654Y-90372257D01*
X112411654Y-90372257D02*
X112483082Y-90443685D01*
X112483082Y-90443685D02*
X112554511Y-90586542D01*
X112554511Y-90586542D02*
X112554511Y-90729400D01*
X112554511Y-90729400D02*
X112483082Y-90943685D01*
X112483082Y-90943685D02*
X111625939Y-91800828D01*
X111625939Y-91800828D02*
X112554511Y-91800828D01*
X98911653Y-91657971D02*
X98840225Y-91729400D01*
X98840225Y-91729400D02*
X98625939Y-91800828D01*
X98625939Y-91800828D02*
X98483082Y-91800828D01*
X98483082Y-91800828D02*
X98268796Y-91729400D01*
X98268796Y-91729400D02*
X98125939Y-91586542D01*
X98125939Y-91586542D02*
X98054510Y-91443685D01*
X98054510Y-91443685D02*
X97983082Y-91157971D01*
X97983082Y-91157971D02*
X97983082Y-90943685D01*
X97983082Y-90943685D02*
X98054510Y-90657971D01*
X98054510Y-90657971D02*
X98125939Y-90515114D01*
X98125939Y-90515114D02*
X98268796Y-90372257D01*
X98268796Y-90372257D02*
X98483082Y-90300828D01*
X98483082Y-90300828D02*
X98625939Y-90300828D01*
X98625939Y-90300828D02*
X98840225Y-90372257D01*
X98840225Y-90372257D02*
X98911653Y-90443685D01*
X99411653Y-90300828D02*
X99768796Y-91800828D01*
X99768796Y-91800828D02*
X100054510Y-90729400D01*
X100054510Y-90729400D02*
X100340225Y-91800828D01*
X100340225Y-91800828D02*
X100697368Y-90300828D01*
X102054511Y-91800828D02*
X101197368Y-91800828D01*
X101625939Y-91800828D02*
X101625939Y-90300828D01*
X101625939Y-90300828D02*
X101483082Y-90515114D01*
X101483082Y-90515114D02*
X101340225Y-90657971D01*
X101340225Y-90657971D02*
X101197368Y-90729400D01*
X101340225Y-107300828D02*
X102197368Y-107300828D01*
X101768796Y-108800828D02*
X101768796Y-107300828D01*
X102697367Y-108015114D02*
X103197367Y-108015114D01*
X103411653Y-108800828D02*
X102697367Y-108800828D01*
X102697367Y-108800828D02*
X102697367Y-107300828D01*
X102697367Y-107300828D02*
X103411653Y-107300828D01*
X104054510Y-108015114D02*
X104554510Y-108015114D01*
X104768796Y-108800828D02*
X104054510Y-108800828D01*
X104054510Y-108800828D02*
X104054510Y-107300828D01*
X104054510Y-107300828D02*
X104768796Y-107300828D01*
X105411653Y-108800828D02*
X105411653Y-107300828D01*
X105411653Y-107300828D02*
X106268796Y-108800828D01*
X106268796Y-108800828D02*
X106268796Y-107300828D01*
X106911654Y-108729400D02*
X107125940Y-108800828D01*
X107125940Y-108800828D02*
X107483082Y-108800828D01*
X107483082Y-108800828D02*
X107625940Y-108729400D01*
X107625940Y-108729400D02*
X107697368Y-108657971D01*
X107697368Y-108657971D02*
X107768797Y-108515114D01*
X107768797Y-108515114D02*
X107768797Y-108372257D01*
X107768797Y-108372257D02*
X107697368Y-108229400D01*
X107697368Y-108229400D02*
X107625940Y-108157971D01*
X107625940Y-108157971D02*
X107483082Y-108086542D01*
X107483082Y-108086542D02*
X107197368Y-108015114D01*
X107197368Y-108015114D02*
X107054511Y-107943685D01*
X107054511Y-107943685D02*
X106983082Y-107872257D01*
X106983082Y-107872257D02*
X106911654Y-107729400D01*
X106911654Y-107729400D02*
X106911654Y-107586542D01*
X106911654Y-107586542D02*
X106983082Y-107443685D01*
X106983082Y-107443685D02*
X107054511Y-107372257D01*
X107054511Y-107372257D02*
X107197368Y-107300828D01*
X107197368Y-107300828D02*
X107554511Y-107300828D01*
X107554511Y-107300828D02*
X107768797Y-107372257D01*
X108697368Y-108086542D02*
X108697368Y-108800828D01*
X108197368Y-107300828D02*
X108697368Y-108086542D01*
X108697368Y-108086542D02*
X109197368Y-107300828D01*
X110840224Y-108800828D02*
X110840224Y-107300828D01*
X110840224Y-107300828D02*
X111411653Y-107300828D01*
X111411653Y-107300828D02*
X111554510Y-107372257D01*
X111554510Y-107372257D02*
X111625939Y-107443685D01*
X111625939Y-107443685D02*
X111697367Y-107586542D01*
X111697367Y-107586542D02*
X111697367Y-107800828D01*
X111697367Y-107800828D02*
X111625939Y-107943685D01*
X111625939Y-107943685D02*
X111554510Y-108015114D01*
X111554510Y-108015114D02*
X111411653Y-108086542D01*
X111411653Y-108086542D02*
X110840224Y-108086542D01*
X113197367Y-108657971D02*
X113125939Y-108729400D01*
X113125939Y-108729400D02*
X112911653Y-108800828D01*
X112911653Y-108800828D02*
X112768796Y-108800828D01*
X112768796Y-108800828D02*
X112554510Y-108729400D01*
X112554510Y-108729400D02*
X112411653Y-108586542D01*
X112411653Y-108586542D02*
X112340224Y-108443685D01*
X112340224Y-108443685D02*
X112268796Y-108157971D01*
X112268796Y-108157971D02*
X112268796Y-107943685D01*
X112268796Y-107943685D02*
X112340224Y-107657971D01*
X112340224Y-107657971D02*
X112411653Y-107515114D01*
X112411653Y-107515114D02*
X112554510Y-107372257D01*
X112554510Y-107372257D02*
X112768796Y-107300828D01*
X112768796Y-107300828D02*
X112911653Y-107300828D01*
X112911653Y-107300828D02*
X113125939Y-107372257D01*
X113125939Y-107372257D02*
X113197367Y-107443685D01*
X114340224Y-108015114D02*
X114554510Y-108086542D01*
X114554510Y-108086542D02*
X114625939Y-108157971D01*
X114625939Y-108157971D02*
X114697367Y-108300828D01*
X114697367Y-108300828D02*
X114697367Y-108515114D01*
X114697367Y-108515114D02*
X114625939Y-108657971D01*
X114625939Y-108657971D02*
X114554510Y-108729400D01*
X114554510Y-108729400D02*
X114411653Y-108800828D01*
X114411653Y-108800828D02*
X113840224Y-108800828D01*
X113840224Y-108800828D02*
X113840224Y-107300828D01*
X113840224Y-107300828D02*
X114340224Y-107300828D01*
X114340224Y-107300828D02*
X114483082Y-107372257D01*
X114483082Y-107372257D02*
X114554510Y-107443685D01*
X114554510Y-107443685D02*
X114625939Y-107586542D01*
X114625939Y-107586542D02*
X114625939Y-107729400D01*
X114625939Y-107729400D02*
X114554510Y-107872257D01*
X114554510Y-107872257D02*
X114483082Y-107943685D01*
X114483082Y-107943685D02*
X114340224Y-108015114D01*
X114340224Y-108015114D02*
X113840224Y-108015114D01*
X137054510Y-108300828D02*
X137054510Y-106800828D01*
X137054510Y-106800828D02*
X137625939Y-106800828D01*
X137625939Y-106800828D02*
X137768796Y-106872257D01*
X137768796Y-106872257D02*
X137840225Y-106943685D01*
X137840225Y-106943685D02*
X137911653Y-107086542D01*
X137911653Y-107086542D02*
X137911653Y-107300828D01*
X137911653Y-107300828D02*
X137840225Y-107443685D01*
X137840225Y-107443685D02*
X137768796Y-107515114D01*
X137768796Y-107515114D02*
X137625939Y-107586542D01*
X137625939Y-107586542D02*
X137054510Y-107586542D01*
X138340225Y-106800828D02*
X139197368Y-106800828D01*
X138768796Y-108300828D02*
X138768796Y-106800828D01*
X139483082Y-106800828D02*
X140340225Y-106800828D01*
X139911653Y-108300828D02*
X139911653Y-106800828D01*
X140840224Y-107729400D02*
X141983082Y-107729400D01*
X142625939Y-106943685D02*
X142697367Y-106872257D01*
X142697367Y-106872257D02*
X142840225Y-106800828D01*
X142840225Y-106800828D02*
X143197367Y-106800828D01*
X143197367Y-106800828D02*
X143340225Y-106872257D01*
X143340225Y-106872257D02*
X143411653Y-106943685D01*
X143411653Y-106943685D02*
X143483082Y-107086542D01*
X143483082Y-107086542D02*
X143483082Y-107229400D01*
X143483082Y-107229400D02*
X143411653Y-107443685D01*
X143411653Y-107443685D02*
X142554510Y-108300828D01*
X142554510Y-108300828D02*
X143483082Y-108300828D01*
X121840225Y-106800828D02*
X122697368Y-106800828D01*
X122268796Y-108300828D02*
X122268796Y-106800828D01*
X123197367Y-106800828D02*
X123197367Y-108015114D01*
X123197367Y-108015114D02*
X123268796Y-108157971D01*
X123268796Y-108157971D02*
X123340225Y-108229400D01*
X123340225Y-108229400D02*
X123483082Y-108300828D01*
X123483082Y-108300828D02*
X123768796Y-108300828D01*
X123768796Y-108300828D02*
X123911653Y-108229400D01*
X123911653Y-108229400D02*
X123983082Y-108157971D01*
X123983082Y-108157971D02*
X124054510Y-108015114D01*
X124054510Y-108015114D02*
X124054510Y-106800828D01*
X124768796Y-108300828D02*
X124768796Y-106800828D01*
X124768796Y-106800828D02*
X125625939Y-108300828D01*
X125625939Y-108300828D02*
X125625939Y-106800828D01*
X126340225Y-107515114D02*
X126840225Y-107515114D01*
X127054511Y-108300828D02*
X126340225Y-108300828D01*
X126340225Y-108300828D02*
X126340225Y-106800828D01*
X126340225Y-106800828D02*
X127054511Y-106800828D01*
X137054510Y-82800828D02*
X137054510Y-81300828D01*
X137054510Y-81300828D02*
X137625939Y-81300828D01*
X137625939Y-81300828D02*
X137768796Y-81372257D01*
X137768796Y-81372257D02*
X137840225Y-81443685D01*
X137840225Y-81443685D02*
X137911653Y-81586542D01*
X137911653Y-81586542D02*
X137911653Y-81800828D01*
X137911653Y-81800828D02*
X137840225Y-81943685D01*
X137840225Y-81943685D02*
X137768796Y-82015114D01*
X137768796Y-82015114D02*
X137625939Y-82086542D01*
X137625939Y-82086542D02*
X137054510Y-82086542D01*
X138340225Y-81300828D02*
X139197368Y-81300828D01*
X138768796Y-82800828D02*
X138768796Y-81300828D01*
X139483082Y-81300828D02*
X140340225Y-81300828D01*
X139911653Y-82800828D02*
X139911653Y-81300828D01*
X140840224Y-82229400D02*
X141983082Y-82229400D01*
X143483082Y-82800828D02*
X142625939Y-82800828D01*
X143054510Y-82800828D02*
X143054510Y-81300828D01*
X143054510Y-81300828D02*
X142911653Y-81515114D01*
X142911653Y-81515114D02*
X142768796Y-81657971D01*
X142768796Y-81657971D02*
X142625939Y-81729400D01*
X126911653Y-81300828D02*
X127911653Y-82800828D01*
X127911653Y-81300828D02*
X126911653Y-82800828D01*
X128483081Y-82800828D02*
X128483081Y-81300828D01*
X128983082Y-81300828D02*
X129840225Y-81300828D01*
X129411653Y-82800828D02*
X129411653Y-81300828D01*
X129983082Y-82943685D02*
X131125939Y-82943685D01*
X131983081Y-82015114D02*
X132197367Y-82086542D01*
X132197367Y-82086542D02*
X132268796Y-82157971D01*
X132268796Y-82157971D02*
X132340224Y-82300828D01*
X132340224Y-82300828D02*
X132340224Y-82515114D01*
X132340224Y-82515114D02*
X132268796Y-82657971D01*
X132268796Y-82657971D02*
X132197367Y-82729400D01*
X132197367Y-82729400D02*
X132054510Y-82800828D01*
X132054510Y-82800828D02*
X131483081Y-82800828D01*
X131483081Y-82800828D02*
X131483081Y-81300828D01*
X131483081Y-81300828D02*
X131983081Y-81300828D01*
X131983081Y-81300828D02*
X132125939Y-81372257D01*
X132125939Y-81372257D02*
X132197367Y-81443685D01*
X132197367Y-81443685D02*
X132268796Y-81586542D01*
X132268796Y-81586542D02*
X132268796Y-81729400D01*
X132268796Y-81729400D02*
X132197367Y-81872257D01*
X132197367Y-81872257D02*
X132125939Y-81943685D01*
X132125939Y-81943685D02*
X131983081Y-82015114D01*
X131983081Y-82015114D02*
X131483081Y-82015114D01*
X133768796Y-82800828D02*
X132911653Y-82800828D01*
X133340224Y-82800828D02*
X133340224Y-81300828D01*
X133340224Y-81300828D02*
X133197367Y-81515114D01*
X133197367Y-81515114D02*
X133054510Y-81657971D01*
X133054510Y-81657971D02*
X132911653Y-81729400D01*
X117911653Y-82800828D02*
X117411653Y-82086542D01*
X117054510Y-82800828D02*
X117054510Y-81300828D01*
X117054510Y-81300828D02*
X117625939Y-81300828D01*
X117625939Y-81300828D02*
X117768796Y-81372257D01*
X117768796Y-81372257D02*
X117840225Y-81443685D01*
X117840225Y-81443685D02*
X117911653Y-81586542D01*
X117911653Y-81586542D02*
X117911653Y-81800828D01*
X117911653Y-81800828D02*
X117840225Y-81943685D01*
X117840225Y-81943685D02*
X117768796Y-82015114D01*
X117768796Y-82015114D02*
X117625939Y-82086542D01*
X117625939Y-82086542D02*
X117054510Y-82086542D01*
X118554510Y-82800828D02*
X118554510Y-81300828D01*
X119054511Y-81300828D02*
X119911654Y-81300828D01*
X119483082Y-82800828D02*
X119483082Y-81300828D01*
X120054511Y-82943685D02*
X121197368Y-82943685D01*
X122054510Y-82015114D02*
X122268796Y-82086542D01*
X122268796Y-82086542D02*
X122340225Y-82157971D01*
X122340225Y-82157971D02*
X122411653Y-82300828D01*
X122411653Y-82300828D02*
X122411653Y-82515114D01*
X122411653Y-82515114D02*
X122340225Y-82657971D01*
X122340225Y-82657971D02*
X122268796Y-82729400D01*
X122268796Y-82729400D02*
X122125939Y-82800828D01*
X122125939Y-82800828D02*
X121554510Y-82800828D01*
X121554510Y-82800828D02*
X121554510Y-81300828D01*
X121554510Y-81300828D02*
X122054510Y-81300828D01*
X122054510Y-81300828D02*
X122197368Y-81372257D01*
X122197368Y-81372257D02*
X122268796Y-81443685D01*
X122268796Y-81443685D02*
X122340225Y-81586542D01*
X122340225Y-81586542D02*
X122340225Y-81729400D01*
X122340225Y-81729400D02*
X122268796Y-81872257D01*
X122268796Y-81872257D02*
X122197368Y-81943685D01*
X122197368Y-81943685D02*
X122054510Y-82015114D01*
X122054510Y-82015114D02*
X121554510Y-82015114D01*
X123840225Y-82800828D02*
X122983082Y-82800828D01*
X123411653Y-82800828D02*
X123411653Y-81300828D01*
X123411653Y-81300828D02*
X123268796Y-81515114D01*
X123268796Y-81515114D02*
X123125939Y-81657971D01*
X123125939Y-81657971D02*
X122983082Y-81729400D01*
X107411653Y-81300828D02*
X108411653Y-82800828D01*
X108411653Y-81300828D02*
X107411653Y-82800828D01*
X108983081Y-82800828D02*
X108983081Y-81300828D01*
X109483082Y-81300828D02*
X110340225Y-81300828D01*
X109911653Y-82800828D02*
X109911653Y-81300828D01*
X110483082Y-82943685D02*
X111625939Y-82943685D01*
X111911653Y-82372257D02*
X112625939Y-82372257D01*
X111768796Y-82800828D02*
X112268796Y-81300828D01*
X112268796Y-81300828D02*
X112768796Y-82800828D01*
X114054510Y-82800828D02*
X113197367Y-82800828D01*
X113625938Y-82800828D02*
X113625938Y-81300828D01*
X113625938Y-81300828D02*
X113483081Y-81515114D01*
X113483081Y-81515114D02*
X113340224Y-81657971D01*
X113340224Y-81657971D02*
X113197367Y-81729400D01*
X97911653Y-82800828D02*
X97411653Y-82086542D01*
X97054510Y-82800828D02*
X97054510Y-81300828D01*
X97054510Y-81300828D02*
X97625939Y-81300828D01*
X97625939Y-81300828D02*
X97768796Y-81372257D01*
X97768796Y-81372257D02*
X97840225Y-81443685D01*
X97840225Y-81443685D02*
X97911653Y-81586542D01*
X97911653Y-81586542D02*
X97911653Y-81800828D01*
X97911653Y-81800828D02*
X97840225Y-81943685D01*
X97840225Y-81943685D02*
X97768796Y-82015114D01*
X97768796Y-82015114D02*
X97625939Y-82086542D01*
X97625939Y-82086542D02*
X97054510Y-82086542D01*
X98554510Y-82800828D02*
X98554510Y-81300828D01*
X99054511Y-81300828D02*
X99911654Y-81300828D01*
X99483082Y-82800828D02*
X99483082Y-81300828D01*
X100054511Y-82943685D02*
X101197368Y-82943685D01*
X101483082Y-82372257D02*
X102197368Y-82372257D01*
X101340225Y-82800828D02*
X101840225Y-81300828D01*
X101840225Y-81300828D02*
X102340225Y-82800828D01*
X103625939Y-82800828D02*
X102768796Y-82800828D01*
X103197367Y-82800828D02*
X103197367Y-81300828D01*
X103197367Y-81300828D02*
X103054510Y-81515114D01*
X103054510Y-81515114D02*
X102911653Y-81657971D01*
X102911653Y-81657971D02*
X102768796Y-81729400D01*
D12*
X120334819Y-103063333D02*
X121049104Y-103063333D01*
X121049104Y-103063333D02*
X121191961Y-103110952D01*
X121191961Y-103110952D02*
X121287200Y-103206190D01*
X121287200Y-103206190D02*
X121334819Y-103349047D01*
X121334819Y-103349047D02*
X121334819Y-103444285D01*
X120763390Y-102444285D02*
X120715771Y-102539523D01*
X120715771Y-102539523D02*
X120668152Y-102587142D01*
X120668152Y-102587142D02*
X120572914Y-102634761D01*
X120572914Y-102634761D02*
X120525295Y-102634761D01*
X120525295Y-102634761D02*
X120430057Y-102587142D01*
X120430057Y-102587142D02*
X120382438Y-102539523D01*
X120382438Y-102539523D02*
X120334819Y-102444285D01*
X120334819Y-102444285D02*
X120334819Y-102253809D01*
X120334819Y-102253809D02*
X120382438Y-102158571D01*
X120382438Y-102158571D02*
X120430057Y-102110952D01*
X120430057Y-102110952D02*
X120525295Y-102063333D01*
X120525295Y-102063333D02*
X120572914Y-102063333D01*
X120572914Y-102063333D02*
X120668152Y-102110952D01*
X120668152Y-102110952D02*
X120715771Y-102158571D01*
X120715771Y-102158571D02*
X120763390Y-102253809D01*
X120763390Y-102253809D02*
X120763390Y-102444285D01*
X120763390Y-102444285D02*
X120811009Y-102539523D01*
X120811009Y-102539523D02*
X120858628Y-102587142D01*
X120858628Y-102587142D02*
X120953866Y-102634761D01*
X120953866Y-102634761D02*
X121144342Y-102634761D01*
X121144342Y-102634761D02*
X121239580Y-102587142D01*
X121239580Y-102587142D02*
X121287200Y-102539523D01*
X121287200Y-102539523D02*
X121334819Y-102444285D01*
X121334819Y-102444285D02*
X121334819Y-102253809D01*
X121334819Y-102253809D02*
X121287200Y-102158571D01*
X121287200Y-102158571D02*
X121239580Y-102110952D01*
X121239580Y-102110952D02*
X121144342Y-102063333D01*
X121144342Y-102063333D02*
X120953866Y-102063333D01*
X120953866Y-102063333D02*
X120858628Y-102110952D01*
X120858628Y-102110952D02*
X120811009Y-102158571D01*
X120811009Y-102158571D02*
X120763390Y-102253809D01*
X135334819Y-103063333D02*
X136049104Y-103063333D01*
X136049104Y-103063333D02*
X136191961Y-103110952D01*
X136191961Y-103110952D02*
X136287200Y-103206190D01*
X136287200Y-103206190D02*
X136334819Y-103349047D01*
X136334819Y-103349047D02*
X136334819Y-103444285D01*
X135334819Y-102682380D02*
X135334819Y-102015714D01*
X135334819Y-102015714D02*
X136334819Y-102444285D01*
X135374819Y-87063333D02*
X136089104Y-87063333D01*
X136089104Y-87063333D02*
X136231961Y-87110952D01*
X136231961Y-87110952D02*
X136327200Y-87206190D01*
X136327200Y-87206190D02*
X136374819Y-87349047D01*
X136374819Y-87349047D02*
X136374819Y-87444285D01*
X135374819Y-86158571D02*
X135374819Y-86349047D01*
X135374819Y-86349047D02*
X135422438Y-86444285D01*
X135422438Y-86444285D02*
X135470057Y-86491904D01*
X135470057Y-86491904D02*
X135612914Y-86587142D01*
X135612914Y-86587142D02*
X135803390Y-86634761D01*
X135803390Y-86634761D02*
X136184342Y-86634761D01*
X136184342Y-86634761D02*
X136279580Y-86587142D01*
X136279580Y-86587142D02*
X136327200Y-86539523D01*
X136327200Y-86539523D02*
X136374819Y-86444285D01*
X136374819Y-86444285D02*
X136374819Y-86253809D01*
X136374819Y-86253809D02*
X136327200Y-86158571D01*
X136327200Y-86158571D02*
X136279580Y-86110952D01*
X136279580Y-86110952D02*
X136184342Y-86063333D01*
X136184342Y-86063333D02*
X135946247Y-86063333D01*
X135946247Y-86063333D02*
X135851009Y-86110952D01*
X135851009Y-86110952D02*
X135803390Y-86158571D01*
X135803390Y-86158571D02*
X135755771Y-86253809D01*
X135755771Y-86253809D02*
X135755771Y-86444285D01*
X135755771Y-86444285D02*
X135803390Y-86539523D01*
X135803390Y-86539523D02*
X135851009Y-86587142D01*
X135851009Y-86587142D02*
X135946247Y-86634761D01*
X125374819Y-87063333D02*
X126089104Y-87063333D01*
X126089104Y-87063333D02*
X126231961Y-87110952D01*
X126231961Y-87110952D02*
X126327200Y-87206190D01*
X126327200Y-87206190D02*
X126374819Y-87349047D01*
X126374819Y-87349047D02*
X126374819Y-87444285D01*
X125374819Y-86110952D02*
X125374819Y-86587142D01*
X125374819Y-86587142D02*
X125851009Y-86634761D01*
X125851009Y-86634761D02*
X125803390Y-86587142D01*
X125803390Y-86587142D02*
X125755771Y-86491904D01*
X125755771Y-86491904D02*
X125755771Y-86253809D01*
X125755771Y-86253809D02*
X125803390Y-86158571D01*
X125803390Y-86158571D02*
X125851009Y-86110952D01*
X125851009Y-86110952D02*
X125946247Y-86063333D01*
X125946247Y-86063333D02*
X126184342Y-86063333D01*
X126184342Y-86063333D02*
X126279580Y-86110952D01*
X126279580Y-86110952D02*
X126327200Y-86158571D01*
X126327200Y-86158571D02*
X126374819Y-86253809D01*
X126374819Y-86253809D02*
X126374819Y-86491904D01*
X126374819Y-86491904D02*
X126327200Y-86587142D01*
X126327200Y-86587142D02*
X126279580Y-86634761D01*
X115374819Y-87063333D02*
X116089104Y-87063333D01*
X116089104Y-87063333D02*
X116231961Y-87110952D01*
X116231961Y-87110952D02*
X116327200Y-87206190D01*
X116327200Y-87206190D02*
X116374819Y-87349047D01*
X116374819Y-87349047D02*
X116374819Y-87444285D01*
X115708152Y-86158571D02*
X116374819Y-86158571D01*
X115327200Y-86396666D02*
X116041485Y-86634761D01*
X116041485Y-86634761D02*
X116041485Y-86015714D01*
X105874819Y-87063333D02*
X106589104Y-87063333D01*
X106589104Y-87063333D02*
X106731961Y-87110952D01*
X106731961Y-87110952D02*
X106827200Y-87206190D01*
X106827200Y-87206190D02*
X106874819Y-87349047D01*
X106874819Y-87349047D02*
X106874819Y-87444285D01*
X105874819Y-86682380D02*
X105874819Y-86063333D01*
X105874819Y-86063333D02*
X106255771Y-86396666D01*
X106255771Y-86396666D02*
X106255771Y-86253809D01*
X106255771Y-86253809D02*
X106303390Y-86158571D01*
X106303390Y-86158571D02*
X106351009Y-86110952D01*
X106351009Y-86110952D02*
X106446247Y-86063333D01*
X106446247Y-86063333D02*
X106684342Y-86063333D01*
X106684342Y-86063333D02*
X106779580Y-86110952D01*
X106779580Y-86110952D02*
X106827200Y-86158571D01*
X106827200Y-86158571D02*
X106874819Y-86253809D01*
X106874819Y-86253809D02*
X106874819Y-86539523D01*
X106874819Y-86539523D02*
X106827200Y-86634761D01*
X106827200Y-86634761D02*
X106779580Y-86682380D01*
X95334819Y-87063333D02*
X96049104Y-87063333D01*
X96049104Y-87063333D02*
X96191961Y-87110952D01*
X96191961Y-87110952D02*
X96287200Y-87206190D01*
X96287200Y-87206190D02*
X96334819Y-87349047D01*
X96334819Y-87349047D02*
X96334819Y-87444285D01*
X95430057Y-86634761D02*
X95382438Y-86587142D01*
X95382438Y-86587142D02*
X95334819Y-86491904D01*
X95334819Y-86491904D02*
X95334819Y-86253809D01*
X95334819Y-86253809D02*
X95382438Y-86158571D01*
X95382438Y-86158571D02*
X95430057Y-86110952D01*
X95430057Y-86110952D02*
X95525295Y-86063333D01*
X95525295Y-86063333D02*
X95620533Y-86063333D01*
X95620533Y-86063333D02*
X95763390Y-86110952D01*
X95763390Y-86110952D02*
X96334819Y-86682380D01*
X96334819Y-86682380D02*
X96334819Y-86063333D01*
X107246666Y-98334819D02*
X107246666Y-99049104D01*
X107246666Y-99049104D02*
X107199047Y-99191961D01*
X107199047Y-99191961D02*
X107103809Y-99287200D01*
X107103809Y-99287200D02*
X106960952Y-99334819D01*
X106960952Y-99334819D02*
X106865714Y-99334819D01*
X108246666Y-99334819D02*
X107675238Y-99334819D01*
X107960952Y-99334819D02*
X107960952Y-98334819D01*
X107960952Y-98334819D02*
X107865714Y-98477676D01*
X107865714Y-98477676D02*
X107770476Y-98572914D01*
X107770476Y-98572914D02*
X107675238Y-98620533D01*
D13*
%TO.C,JP2*%
X89325000Y-94500000D02*
X92125000Y-94500000D01*
X89325000Y-96500000D02*
X89325000Y-94500000D01*
X92125000Y-94500000D02*
X92125000Y-96500000D01*
X92125000Y-96500000D02*
X89325000Y-96500000D01*
%TO.C,JP1*%
X150675000Y-97000000D02*
X147875000Y-97000000D01*
X150675000Y-95000000D02*
X150675000Y-97000000D01*
X147875000Y-97000000D02*
X147875000Y-95000000D01*
X147875000Y-95000000D02*
X150675000Y-95000000D01*
%TO.C,J8*%
X127990000Y-100080000D02*
X121970000Y-100080000D01*
X121970000Y-100080000D02*
X121970000Y-105380000D01*
X122570000Y-100660000D02*
X121970000Y-100660000D01*
X126990000Y-101460000D02*
X127990000Y-101460000D01*
X127990000Y-101710000D02*
X126990000Y-101710000D01*
X126460000Y-101710000D02*
X126990000Y-101460000D01*
X122570000Y-102260000D02*
X122570000Y-100660000D01*
X121970000Y-102260000D02*
X122570000Y-102260000D01*
X122570000Y-103200000D02*
X121970000Y-103200000D01*
X127990000Y-103750000D02*
X126990000Y-103750000D01*
X126460000Y-103750000D02*
X126460000Y-101710000D01*
X127990000Y-104000000D02*
X126990000Y-104000000D01*
X126990000Y-104000000D02*
X126990000Y-101460000D01*
X126990000Y-104000000D02*
X126460000Y-103750000D01*
X122570000Y-104800000D02*
X122570000Y-103200000D01*
X121970000Y-104800000D02*
X122570000Y-104800000D01*
X127990000Y-105380000D02*
X127990000Y-100080000D01*
X121970000Y-105380000D02*
X127990000Y-105380000D01*
X123000000Y-105670000D02*
X127000000Y-105670000D01*
%TO.C,J7*%
X142990000Y-100080000D02*
X136970000Y-100080000D01*
X136970000Y-100080000D02*
X136970000Y-105380000D01*
X137570000Y-100660000D02*
X136970000Y-100660000D01*
X141990000Y-101460000D02*
X142990000Y-101460000D01*
X142990000Y-101710000D02*
X141990000Y-101710000D01*
X141460000Y-101710000D02*
X141990000Y-101460000D01*
X137570000Y-102260000D02*
X137570000Y-100660000D01*
X136970000Y-102260000D02*
X137570000Y-102260000D01*
X137570000Y-103200000D02*
X136970000Y-103200000D01*
X142990000Y-103750000D02*
X141990000Y-103750000D01*
X141460000Y-103750000D02*
X141460000Y-101710000D01*
X142990000Y-104000000D02*
X141990000Y-104000000D01*
X141990000Y-104000000D02*
X141990000Y-101460000D01*
X141990000Y-104000000D02*
X141460000Y-103750000D01*
X137570000Y-104800000D02*
X137570000Y-103200000D01*
X136970000Y-104800000D02*
X137570000Y-104800000D01*
X142990000Y-105380000D02*
X142990000Y-100080000D01*
X136970000Y-105380000D02*
X142990000Y-105380000D01*
X138000000Y-105670000D02*
X142000000Y-105670000D01*
%TO.C,J6*%
X138040000Y-89670000D02*
X142040000Y-89670000D01*
X137010000Y-89380000D02*
X143030000Y-89380000D01*
X143030000Y-89380000D02*
X143030000Y-84080000D01*
X137010000Y-88800000D02*
X137610000Y-88800000D01*
X137610000Y-88800000D02*
X137610000Y-87200000D01*
X142030000Y-88000000D02*
X141500000Y-87750000D01*
X142030000Y-88000000D02*
X142030000Y-85460000D01*
X143030000Y-88000000D02*
X142030000Y-88000000D01*
X141500000Y-87750000D02*
X141500000Y-85710000D01*
X143030000Y-87750000D02*
X142030000Y-87750000D01*
X137610000Y-87200000D02*
X137010000Y-87200000D01*
X137010000Y-86260000D02*
X137610000Y-86260000D01*
X137610000Y-86260000D02*
X137610000Y-84660000D01*
X141500000Y-85710000D02*
X142030000Y-85460000D01*
X143030000Y-85710000D02*
X142030000Y-85710000D01*
X142030000Y-85460000D02*
X143030000Y-85460000D01*
X137610000Y-84660000D02*
X137010000Y-84660000D01*
X137010000Y-84080000D02*
X137010000Y-89380000D01*
X143030000Y-84080000D02*
X137010000Y-84080000D01*
%TO.C,J5*%
X128040000Y-89670000D02*
X132040000Y-89670000D01*
X127010000Y-89380000D02*
X133030000Y-89380000D01*
X133030000Y-89380000D02*
X133030000Y-84080000D01*
X127010000Y-88800000D02*
X127610000Y-88800000D01*
X127610000Y-88800000D02*
X127610000Y-87200000D01*
X132030000Y-88000000D02*
X131500000Y-87750000D01*
X132030000Y-88000000D02*
X132030000Y-85460000D01*
X133030000Y-88000000D02*
X132030000Y-88000000D01*
X131500000Y-87750000D02*
X131500000Y-85710000D01*
X133030000Y-87750000D02*
X132030000Y-87750000D01*
X127610000Y-87200000D02*
X127010000Y-87200000D01*
X127010000Y-86260000D02*
X127610000Y-86260000D01*
X127610000Y-86260000D02*
X127610000Y-84660000D01*
X131500000Y-85710000D02*
X132030000Y-85460000D01*
X133030000Y-85710000D02*
X132030000Y-85710000D01*
X132030000Y-85460000D02*
X133030000Y-85460000D01*
X127610000Y-84660000D02*
X127010000Y-84660000D01*
X127010000Y-84080000D02*
X127010000Y-89380000D01*
X133030000Y-84080000D02*
X127010000Y-84080000D01*
%TO.C,J4*%
X118040000Y-89670000D02*
X122040000Y-89670000D01*
X117010000Y-89380000D02*
X123030000Y-89380000D01*
X123030000Y-89380000D02*
X123030000Y-84080000D01*
X117010000Y-88800000D02*
X117610000Y-88800000D01*
X117610000Y-88800000D02*
X117610000Y-87200000D01*
X122030000Y-88000000D02*
X121500000Y-87750000D01*
X122030000Y-88000000D02*
X122030000Y-85460000D01*
X123030000Y-88000000D02*
X122030000Y-88000000D01*
X121500000Y-87750000D02*
X121500000Y-85710000D01*
X123030000Y-87750000D02*
X122030000Y-87750000D01*
X117610000Y-87200000D02*
X117010000Y-87200000D01*
X117010000Y-86260000D02*
X117610000Y-86260000D01*
X117610000Y-86260000D02*
X117610000Y-84660000D01*
X121500000Y-85710000D02*
X122030000Y-85460000D01*
X123030000Y-85710000D02*
X122030000Y-85710000D01*
X122030000Y-85460000D02*
X123030000Y-85460000D01*
X117610000Y-84660000D02*
X117010000Y-84660000D01*
X117010000Y-84080000D02*
X117010000Y-89380000D01*
X123030000Y-84080000D02*
X117010000Y-84080000D01*
%TO.C,J3*%
X108540000Y-89670000D02*
X112540000Y-89670000D01*
X107510000Y-89380000D02*
X113530000Y-89380000D01*
X113530000Y-89380000D02*
X113530000Y-84080000D01*
X107510000Y-88800000D02*
X108110000Y-88800000D01*
X108110000Y-88800000D02*
X108110000Y-87200000D01*
X112530000Y-88000000D02*
X112000000Y-87750000D01*
X112530000Y-88000000D02*
X112530000Y-85460000D01*
X113530000Y-88000000D02*
X112530000Y-88000000D01*
X112000000Y-87750000D02*
X112000000Y-85710000D01*
X113530000Y-87750000D02*
X112530000Y-87750000D01*
X108110000Y-87200000D02*
X107510000Y-87200000D01*
X107510000Y-86260000D02*
X108110000Y-86260000D01*
X108110000Y-86260000D02*
X108110000Y-84660000D01*
X112000000Y-85710000D02*
X112530000Y-85460000D01*
X113530000Y-85710000D02*
X112530000Y-85710000D01*
X112530000Y-85460000D02*
X113530000Y-85460000D01*
X108110000Y-84660000D02*
X107510000Y-84660000D01*
X107510000Y-84080000D02*
X107510000Y-89380000D01*
X113530000Y-84080000D02*
X107510000Y-84080000D01*
%TO.C,J2*%
X98000000Y-89670000D02*
X102000000Y-89670000D01*
X96970000Y-89380000D02*
X102990000Y-89380000D01*
X102990000Y-89380000D02*
X102990000Y-84080000D01*
X96970000Y-88800000D02*
X97570000Y-88800000D01*
X97570000Y-88800000D02*
X97570000Y-87200000D01*
X101990000Y-88000000D02*
X101460000Y-87750000D01*
X101990000Y-88000000D02*
X101990000Y-85460000D01*
X102990000Y-88000000D02*
X101990000Y-88000000D01*
X101460000Y-87750000D02*
X101460000Y-85710000D01*
X102990000Y-87750000D02*
X101990000Y-87750000D01*
X97570000Y-87200000D02*
X96970000Y-87200000D01*
X96970000Y-86260000D02*
X97570000Y-86260000D01*
X97570000Y-86260000D02*
X97570000Y-84660000D01*
X101460000Y-85710000D02*
X101990000Y-85460000D01*
X102990000Y-85710000D02*
X101990000Y-85710000D01*
X101990000Y-85460000D02*
X102990000Y-85460000D01*
X97570000Y-84660000D02*
X96970000Y-84660000D01*
X96970000Y-84080000D02*
X96970000Y-89380000D01*
X102990000Y-84080000D02*
X96970000Y-84080000D01*
%TO.C,J1*%
X98290000Y-101000000D02*
X98290000Y-105000000D01*
X98580000Y-99970000D02*
X98580000Y-105990000D01*
X98580000Y-105990000D02*
X116580000Y-105990000D01*
X99160000Y-99970000D02*
X99160000Y-100570000D01*
X99160000Y-100570000D02*
X100760000Y-100570000D01*
X99960000Y-104990000D02*
X100210000Y-104460000D01*
X99960000Y-104990000D02*
X105040000Y-104990000D01*
X99960000Y-105990000D02*
X99960000Y-104990000D01*
X100210000Y-104460000D02*
X105040000Y-104460000D01*
X100210000Y-105990000D02*
X100210000Y-104990000D01*
X100760000Y-100570000D02*
X100760000Y-99970000D01*
X101700000Y-99970000D02*
X101700000Y-100570000D01*
X101700000Y-100570000D02*
X103300000Y-100570000D01*
X103300000Y-100570000D02*
X103300000Y-99970000D01*
X104240000Y-99970000D02*
X104240000Y-100570000D01*
X104240000Y-100570000D02*
X105840000Y-100570000D01*
X105040000Y-104460000D02*
X105040000Y-104990000D01*
X105040000Y-104990000D02*
X105040000Y-105990000D01*
X105840000Y-100570000D02*
X105840000Y-99970000D01*
X106780000Y-99970000D02*
X106780000Y-100570000D01*
X106780000Y-100570000D02*
X108380000Y-100570000D01*
X108380000Y-100570000D02*
X108380000Y-99970000D01*
X109320000Y-99970000D02*
X109320000Y-100570000D01*
X109320000Y-100570000D02*
X110920000Y-100570000D01*
X110120000Y-104460000D02*
X110120000Y-104990000D01*
X110120000Y-104990000D02*
X110120000Y-105990000D01*
X110920000Y-100570000D02*
X110920000Y-99970000D01*
X111860000Y-99970000D02*
X111860000Y-100570000D01*
X111860000Y-100570000D02*
X113460000Y-100570000D01*
X113460000Y-100570000D02*
X113460000Y-99970000D01*
X114400000Y-99970000D02*
X114400000Y-100570000D01*
X114400000Y-100570000D02*
X116000000Y-100570000D01*
X114950000Y-104460000D02*
X110120000Y-104460000D01*
X114950000Y-105990000D02*
X114950000Y-104990000D01*
X115200000Y-104990000D02*
X110120000Y-104990000D01*
X115200000Y-104990000D02*
X114950000Y-104460000D01*
X115200000Y-105990000D02*
X115200000Y-104990000D01*
X116000000Y-100570000D02*
X116000000Y-99970000D01*
X116580000Y-99970000D02*
X98580000Y-99970000D01*
X116580000Y-105990000D02*
X116580000Y-99970000D01*
%TD*%
M02*
