M48
; DRILL file {KiCad 8.0.7} date 2025-01-27T22:31:37-0600
; FORMAT={-:-/ absolute / inch / decimal}
; #@! TF.CreationDate,2025-01-27T22:31:37-06:00
; #@! TF.GenerationSoftware,Kicad,Pcbnew,8.0.7
; #@! TF.FileFunction,Plated,1,2,PTH
FMAT,2
INCH
; #@! TA.AperFunction,Plated,PTH,ComponentDrill
T1C0.0469
; #@! TA.AperFunction,Plated,PTH,ComponentDrill
T2C0.1260
%
G90
G05
T1
X3.9354Y-4.0551
X3.937Y-3.3646
X3.937Y-3.4646
X4.0354Y-4.0551
X4.1354Y-4.0551
X4.2354Y-4.0551
X4.3354Y-4.0551
X4.352Y-3.3646
X4.352Y-3.4646
X4.4354Y-4.0551
X4.5354Y-4.0551
X4.726Y-3.3646
X4.726Y-3.4646
X4.9213Y-3.9945
X4.9213Y-4.0945
X5.1197Y-3.3646
X5.1197Y-3.4646
X5.5118Y-3.9945
X5.5118Y-4.0945
X5.5134Y-3.3646
X5.5134Y-3.4646
T2
X3.5433Y-3.3465
X3.5433Y-4.1339
X5.9055Y-3.3465
X5.9055Y-4.1339
M30
