%TF.GenerationSoftware,KiCad,Pcbnew,8.0.7*%
%TF.CreationDate,2025-01-27T22:31:33-06:00*%
%TF.ProjectId,teensy-acc-pcb,7465656e-7379-42d6-9163-632d7063622e,rev?*%
%TF.SameCoordinates,Original*%
%TF.FileFunction,Copper,L2,Bot*%
%TF.FilePolarity,Positive*%
%FSLAX46Y46*%
G04 Gerber Fmt 4.6, Leading zero omitted, Abs format (unit mm)*
G04 Created by KiCad (PCBNEW 8.0.7) date 2025-01-27 22:31:33*
%MOMM*%
%LPD*%
G01*
G04 APERTURE LIST*
G04 Aperture macros list*
%AMRoundRect*
0 Rectangle with rounded corners*
0 $1 Rounding radius*
0 $2 $3 $4 $5 $6 $7 $8 $9 X,Y pos of 4 corners*
0 Add a 4 corners polygon primitive as box body*
4,1,4,$2,$3,$4,$5,$6,$7,$8,$9,$2,$3,0*
0 Add four circle primitives for the rounded corners*
1,1,$1+$1,$2,$3*
1,1,$1+$1,$4,$5*
1,1,$1+$1,$6,$7*
1,1,$1+$1,$8,$9*
0 Add four rect primitives between the rounded corners*
20,1,$1+$1,$2,$3,$4,$5,0*
20,1,$1+$1,$4,$5,$6,$7,0*
20,1,$1+$1,$6,$7,$8,$9,0*
20,1,$1+$1,$8,$9,$2,$3,0*%
G04 Aperture macros list end*
%TA.AperFunction,ComponentPad*%
%ADD10C,5.600000*%
%TD*%
%TA.AperFunction,ComponentPad*%
%ADD11O,2.190000X1.740000*%
%TD*%
%TA.AperFunction,ComponentPad*%
%ADD12RoundRect,0.250000X0.845000X-0.620000X0.845000X0.620000X-0.845000X0.620000X-0.845000X-0.620000X0*%
%TD*%
%TA.AperFunction,ComponentPad*%
%ADD13RoundRect,0.250000X-0.620000X-0.845000X0.620000X-0.845000X0.620000X0.845000X-0.620000X0.845000X0*%
%TD*%
%TA.AperFunction,ComponentPad*%
%ADD14O,1.740000X2.190000*%
%TD*%
G04 APERTURE END LIST*
D10*
%TO.P,H4,1,1*%
%TO.N,/hole2*%
X90000000Y-105000000D03*
%TD*%
%TO.P,H3,1,1*%
%TO.N,/hole2*%
X90000000Y-85000000D03*
%TD*%
%TO.P,H2,1,1*%
%TO.N,/hole1*%
X150000000Y-105000000D03*
%TD*%
%TO.P,H1,1,1*%
%TO.N,/hole1*%
X150000000Y-85000000D03*
%TD*%
D11*
%TO.P,J8,2,Pin_2*%
%TO.N,GND*%
X125000000Y-101460000D03*
D12*
%TO.P,J8,1,Pin_1*%
%TO.N,/TUNE-CW6*%
X125000000Y-104000000D03*
%TD*%
D11*
%TO.P,J7,2,Pin_2*%
%TO.N,GND*%
X140000000Y-101460000D03*
D12*
%TO.P,J7,1,Pin_1*%
%TO.N,/PTT-CW5*%
X140000000Y-104000000D03*
%TD*%
%TO.P,J6,1,Pin_1*%
%TO.N,/PTT-CW5*%
X140040000Y-88000000D03*
D11*
%TO.P,J6,2,Pin_2*%
%TO.N,GND*%
X140040000Y-85460000D03*
%TD*%
D12*
%TO.P,J5,1,Pin_1*%
%TO.N,/XIT_B1-CW4*%
X130040000Y-88000000D03*
D11*
%TO.P,J5,2,Pin_2*%
%TO.N,GND*%
X130040000Y-85460000D03*
%TD*%
D12*
%TO.P,J4,1,Pin_1*%
%TO.N,/RIT_B1-CW3*%
X120040000Y-88000000D03*
D11*
%TO.P,J4,2,Pin_2*%
%TO.N,GND*%
X120040000Y-85460000D03*
%TD*%
D12*
%TO.P,J3,1,Pin_1*%
%TO.N,/XIT_A1-CW2*%
X110540000Y-88000000D03*
D11*
%TO.P,J3,2,Pin_2*%
%TO.N,GND*%
X110540000Y-85460000D03*
%TD*%
D12*
%TO.P,J2,1,Pin_1*%
%TO.N,/RIT_A1-CW1*%
X100000000Y-88000000D03*
D11*
%TO.P,J2,2,Pin_2*%
%TO.N,GND*%
X100000000Y-85460000D03*
%TD*%
D13*
%TO.P,J1,1,Pin_1*%
%TO.N,GND*%
X99960000Y-103000000D03*
D14*
%TO.P,J1,2,Pin_2*%
%TO.N,/RIT_A1-CW1*%
X102500000Y-103000000D03*
%TO.P,J1,3,Pin_3*%
%TO.N,/XIT_A1-CW2*%
X105040000Y-103000000D03*
%TO.P,J1,4,Pin_4*%
%TO.N,/RIT_B1-CW3*%
X107580000Y-103000000D03*
%TO.P,J1,5,Pin_5*%
%TO.N,/XIT_B1-CW4*%
X110120000Y-103000000D03*
%TO.P,J1,6,Pin_6*%
%TO.N,/PTT-CW5*%
X112660000Y-103000000D03*
%TO.P,J1,7,Pin_7*%
%TO.N,/TUNE-CW6*%
X115200000Y-103000000D03*
%TD*%
%TA.AperFunction,Conductor*%
%TO.N,GND*%
G36*
X149925245Y-80597474D02*
G01*
X149927057Y-80597595D01*
X149934108Y-80597595D01*
X149997143Y-80597595D01*
X150002869Y-80597726D01*
X150400486Y-80616110D01*
X150411876Y-80617166D01*
X150803272Y-80671763D01*
X150814516Y-80673865D01*
X151199204Y-80764343D01*
X151210194Y-80767470D01*
X151584914Y-80893064D01*
X151595568Y-80897192D01*
X151957086Y-81056817D01*
X151967313Y-81061909D01*
X152235621Y-81211356D01*
X152312555Y-81254208D01*
X152322293Y-81260237D01*
X152648317Y-81483568D01*
X152657457Y-81490471D01*
X152961470Y-81742920D01*
X152969934Y-81750636D01*
X153249363Y-82030065D01*
X153257079Y-82038529D01*
X153509528Y-82342542D01*
X153516431Y-82351682D01*
X153739762Y-82677706D01*
X153745791Y-82687444D01*
X153875437Y-82920202D01*
X153919711Y-82999690D01*
X153938083Y-83032673D01*
X153943188Y-83042926D01*
X154102802Y-83404418D01*
X154106940Y-83415098D01*
X154232525Y-83789792D01*
X154235659Y-83800808D01*
X154326132Y-84185475D01*
X154328237Y-84196734D01*
X154382832Y-84588116D01*
X154383889Y-84599520D01*
X154402271Y-84997104D01*
X154402403Y-85002831D01*
X154402403Y-85070822D01*
X154402766Y-85076172D01*
X154499479Y-104997119D01*
X154499362Y-105003129D01*
X154482614Y-105386750D01*
X154481671Y-105397527D01*
X154431849Y-105775957D01*
X154429971Y-105786610D01*
X154347354Y-106159272D01*
X154344554Y-106169721D01*
X154229775Y-106533755D01*
X154226075Y-106543921D01*
X154080002Y-106896572D01*
X154075430Y-106906376D01*
X153899183Y-107244942D01*
X153893775Y-107254310D01*
X153688681Y-107576244D01*
X153682476Y-107585105D01*
X153450110Y-107887930D01*
X153443156Y-107896217D01*
X153185284Y-108177635D01*
X153177635Y-108185284D01*
X152896217Y-108443156D01*
X152887930Y-108450110D01*
X152585105Y-108682476D01*
X152576244Y-108688681D01*
X152254310Y-108893775D01*
X152244942Y-108899183D01*
X151906376Y-109075430D01*
X151896572Y-109080002D01*
X151543921Y-109226075D01*
X151533755Y-109229775D01*
X151169721Y-109344554D01*
X151159272Y-109347354D01*
X150786610Y-109429971D01*
X150775957Y-109431849D01*
X150397526Y-109481671D01*
X150386750Y-109482614D01*
X150002703Y-109499382D01*
X149997294Y-109499500D01*
X90002706Y-109499500D01*
X89997297Y-109499382D01*
X89613249Y-109482614D01*
X89602473Y-109481671D01*
X89224042Y-109431849D01*
X89213389Y-109429971D01*
X88840727Y-109347354D01*
X88830278Y-109344554D01*
X88466244Y-109229775D01*
X88456078Y-109226075D01*
X88103427Y-109080002D01*
X88093623Y-109075430D01*
X87755057Y-108899183D01*
X87745689Y-108893775D01*
X87423755Y-108688681D01*
X87414894Y-108682476D01*
X87112069Y-108450110D01*
X87103782Y-108443156D01*
X86822364Y-108185284D01*
X86814715Y-108177635D01*
X86556843Y-107896217D01*
X86549889Y-107887930D01*
X86317523Y-107585105D01*
X86311318Y-107576244D01*
X86106224Y-107254310D01*
X86100816Y-107244942D01*
X85924569Y-106906376D01*
X85919997Y-106896572D01*
X85840267Y-106704086D01*
X85773920Y-106543911D01*
X85770224Y-106533755D01*
X85724227Y-106387870D01*
X85655442Y-106169710D01*
X85652648Y-106159284D01*
X85570025Y-105786597D01*
X85568152Y-105775971D01*
X85518326Y-105397506D01*
X85517386Y-105386771D01*
X85500618Y-105002702D01*
X85500559Y-105000000D01*
X86694652Y-105000000D01*
X86711178Y-105304814D01*
X86714028Y-105357368D01*
X86714029Y-105357385D01*
X86771926Y-105710539D01*
X86771932Y-105710565D01*
X86867672Y-106055392D01*
X86867674Y-106055399D01*
X87000142Y-106387870D01*
X87000151Y-106387888D01*
X87167784Y-106704077D01*
X87167787Y-106704082D01*
X87167789Y-106704085D01*
X87298298Y-106896572D01*
X87368634Y-107000309D01*
X87368641Y-107000319D01*
X87600331Y-107273085D01*
X87600332Y-107273086D01*
X87860163Y-107519211D01*
X88145081Y-107735800D01*
X88451747Y-107920315D01*
X88451749Y-107920316D01*
X88451751Y-107920317D01*
X88451755Y-107920319D01*
X88776552Y-108070585D01*
X88776565Y-108070591D01*
X89115726Y-108184868D01*
X89465254Y-108261805D01*
X89821052Y-108300500D01*
X89821058Y-108300500D01*
X90178942Y-108300500D01*
X90178948Y-108300500D01*
X90534746Y-108261805D01*
X90884274Y-108184868D01*
X91223435Y-108070591D01*
X91548253Y-107920315D01*
X91854919Y-107735800D01*
X92139837Y-107519211D01*
X92399668Y-107273086D01*
X92631365Y-107000311D01*
X92832211Y-106704085D01*
X92999853Y-106387880D01*
X93132324Y-106055403D01*
X93228071Y-105710552D01*
X93285541Y-105359999D01*
X93285970Y-105357385D01*
X93285970Y-105357382D01*
X93285972Y-105357371D01*
X93305348Y-105000000D01*
X93285972Y-104642629D01*
X93278163Y-104594999D01*
X93228073Y-104289460D01*
X93228072Y-104289459D01*
X93228071Y-104289448D01*
X93180420Y-104117823D01*
X93132327Y-103944607D01*
X93132325Y-103944600D01*
X93116164Y-103904040D01*
X92999853Y-103612120D01*
X92832211Y-103295915D01*
X92631365Y-102999689D01*
X92631361Y-102999684D01*
X92631358Y-102999680D01*
X92399668Y-102726914D01*
X92361392Y-102690657D01*
X92139837Y-102480789D01*
X92139830Y-102480783D01*
X92139827Y-102480781D01*
X92040138Y-102405000D01*
X91854919Y-102264200D01*
X91590348Y-102105013D01*
X98590000Y-102105013D01*
X98590000Y-102750000D01*
X99417291Y-102750000D01*
X99405548Y-102770339D01*
X99365000Y-102921667D01*
X99365000Y-103078333D01*
X99405548Y-103229661D01*
X99417291Y-103250000D01*
X98590001Y-103250000D01*
X98590001Y-103894986D01*
X98600494Y-103997697D01*
X98655641Y-104164119D01*
X98655643Y-104164124D01*
X98747684Y-104313345D01*
X98871654Y-104437315D01*
X99020875Y-104529356D01*
X99020880Y-104529358D01*
X99187302Y-104584505D01*
X99187309Y-104584506D01*
X99290019Y-104594999D01*
X99709999Y-104594999D01*
X99710000Y-104594998D01*
X99710000Y-103542709D01*
X99730339Y-103554452D01*
X99881667Y-103595000D01*
X100038333Y-103595000D01*
X100189661Y-103554452D01*
X100210000Y-103542709D01*
X100210000Y-104594999D01*
X100629972Y-104594999D01*
X100629986Y-104594998D01*
X100732697Y-104584505D01*
X100899119Y-104529358D01*
X100899124Y-104529356D01*
X101048345Y-104437315D01*
X101172315Y-104313345D01*
X101264354Y-104164127D01*
X101264745Y-104163289D01*
X101265167Y-104162809D01*
X101268149Y-104157975D01*
X101268974Y-104158484D01*
X101310910Y-104110843D01*
X101378100Y-104091681D01*
X101444984Y-104111887D01*
X101464816Y-104127996D01*
X101607179Y-104270359D01*
X101781701Y-104397157D01*
X101973911Y-104495092D01*
X102179074Y-104561754D01*
X102258973Y-104574408D01*
X102392134Y-104595500D01*
X102392139Y-104595500D01*
X102607866Y-104595500D01*
X102726230Y-104576752D01*
X102820926Y-104561754D01*
X103026089Y-104495092D01*
X103218299Y-104397157D01*
X103392821Y-104270359D01*
X103545359Y-104117821D01*
X103669682Y-103946704D01*
X103725012Y-103904040D01*
X103794626Y-103898061D01*
X103856420Y-103930667D01*
X103870315Y-103946702D01*
X103994641Y-104117821D01*
X104147179Y-104270359D01*
X104321701Y-104397157D01*
X104513911Y-104495092D01*
X104719074Y-104561754D01*
X104798973Y-104574408D01*
X104932134Y-104595500D01*
X104932139Y-104595500D01*
X105147866Y-104595500D01*
X105266230Y-104576752D01*
X105360926Y-104561754D01*
X105566089Y-104495092D01*
X105758299Y-104397157D01*
X105932821Y-104270359D01*
X106085359Y-104117821D01*
X106209682Y-103946704D01*
X106265012Y-103904040D01*
X106334626Y-103898061D01*
X106396420Y-103930667D01*
X106410315Y-103946702D01*
X106534641Y-104117821D01*
X106687179Y-104270359D01*
X106861701Y-104397157D01*
X107053911Y-104495092D01*
X107259074Y-104561754D01*
X107338973Y-104574408D01*
X107472134Y-104595500D01*
X107472139Y-104595500D01*
X107687866Y-104595500D01*
X107806230Y-104576752D01*
X107900926Y-104561754D01*
X108106089Y-104495092D01*
X108298299Y-104397157D01*
X108472821Y-104270359D01*
X108625359Y-104117821D01*
X108749682Y-103946704D01*
X108805012Y-103904040D01*
X108874626Y-103898061D01*
X108936420Y-103930667D01*
X108950315Y-103946702D01*
X109074641Y-104117821D01*
X109227179Y-104270359D01*
X109401701Y-104397157D01*
X109593911Y-104495092D01*
X109799074Y-104561754D01*
X109878973Y-104574408D01*
X110012134Y-104595500D01*
X110012139Y-104595500D01*
X110227866Y-104595500D01*
X110346230Y-104576752D01*
X110440926Y-104561754D01*
X110646089Y-104495092D01*
X110838299Y-104397157D01*
X111012821Y-104270359D01*
X111165359Y-104117821D01*
X111289682Y-103946704D01*
X111345012Y-103904040D01*
X111414626Y-103898061D01*
X111476420Y-103930667D01*
X111490315Y-103946702D01*
X111614641Y-104117821D01*
X111767179Y-104270359D01*
X111941701Y-104397157D01*
X112133911Y-104495092D01*
X112339074Y-104561754D01*
X112418973Y-104574408D01*
X112552134Y-104595500D01*
X112552139Y-104595500D01*
X112767866Y-104595500D01*
X112886230Y-104576752D01*
X112980926Y-104561754D01*
X113186089Y-104495092D01*
X113378299Y-104397157D01*
X113552821Y-104270359D01*
X113705359Y-104117821D01*
X113829682Y-103946704D01*
X113885012Y-103904040D01*
X113954626Y-103898061D01*
X114016420Y-103930667D01*
X114030315Y-103946702D01*
X114154641Y-104117821D01*
X114307179Y-104270359D01*
X114481701Y-104397157D01*
X114673911Y-104495092D01*
X114879074Y-104561754D01*
X114958973Y-104574408D01*
X115092134Y-104595500D01*
X115092139Y-104595500D01*
X115307866Y-104595500D01*
X115426230Y-104576752D01*
X115520926Y-104561754D01*
X115726089Y-104495092D01*
X115918299Y-104397157D01*
X116092821Y-104270359D01*
X116245359Y-104117821D01*
X116372157Y-103943299D01*
X116470092Y-103751089D01*
X116536754Y-103545926D01*
X116551752Y-103451230D01*
X116570500Y-103332866D01*
X116570500Y-103329983D01*
X123404500Y-103329983D01*
X123404500Y-104670001D01*
X123404501Y-104670018D01*
X123415000Y-104772796D01*
X123415001Y-104772799D01*
X123468059Y-104932914D01*
X123470186Y-104939334D01*
X123562288Y-105088656D01*
X123686344Y-105212712D01*
X123835666Y-105304814D01*
X124002203Y-105359999D01*
X124104991Y-105370500D01*
X125895008Y-105370499D01*
X125997797Y-105359999D01*
X126164334Y-105304814D01*
X126313656Y-105212712D01*
X126437712Y-105088656D01*
X126529814Y-104939334D01*
X126584999Y-104772797D01*
X126595500Y-104670009D01*
X126595499Y-103329992D01*
X126595498Y-103329983D01*
X138404500Y-103329983D01*
X138404500Y-104670001D01*
X138404501Y-104670018D01*
X138415000Y-104772796D01*
X138415001Y-104772799D01*
X138468059Y-104932914D01*
X138470186Y-104939334D01*
X138562288Y-105088656D01*
X138686344Y-105212712D01*
X138835666Y-105304814D01*
X139002203Y-105359999D01*
X139104991Y-105370500D01*
X140895008Y-105370499D01*
X140997797Y-105359999D01*
X141164334Y-105304814D01*
X141313656Y-105212712D01*
X141437712Y-105088656D01*
X141492395Y-105000000D01*
X146694652Y-105000000D01*
X146711178Y-105304814D01*
X146714028Y-105357368D01*
X146714029Y-105357385D01*
X146771926Y-105710539D01*
X146771932Y-105710565D01*
X146867672Y-106055392D01*
X146867674Y-106055399D01*
X147000142Y-106387870D01*
X147000151Y-106387888D01*
X147167784Y-106704077D01*
X147167787Y-106704082D01*
X147167789Y-106704085D01*
X147298298Y-106896572D01*
X147368634Y-107000309D01*
X147368641Y-107000319D01*
X147600331Y-107273085D01*
X147600332Y-107273086D01*
X147860163Y-107519211D01*
X148145081Y-107735800D01*
X148451747Y-107920315D01*
X148451749Y-107920316D01*
X148451751Y-107920317D01*
X148451755Y-107920319D01*
X148776552Y-108070585D01*
X148776565Y-108070591D01*
X149115726Y-108184868D01*
X149465254Y-108261805D01*
X149821052Y-108300500D01*
X149821058Y-108300500D01*
X150178942Y-108300500D01*
X150178948Y-108300500D01*
X150534746Y-108261805D01*
X150884274Y-108184868D01*
X151223435Y-108070591D01*
X151548253Y-107920315D01*
X151854919Y-107735800D01*
X152139837Y-107519211D01*
X152399668Y-107273086D01*
X152631365Y-107000311D01*
X152832211Y-106704085D01*
X152999853Y-106387880D01*
X153132324Y-106055403D01*
X153228071Y-105710552D01*
X153285541Y-105359999D01*
X153285970Y-105357385D01*
X153285970Y-105357382D01*
X153285972Y-105357371D01*
X153305348Y-105000000D01*
X153285972Y-104642629D01*
X153278163Y-104594999D01*
X153228073Y-104289460D01*
X153228072Y-104289459D01*
X153228071Y-104289448D01*
X153180420Y-104117823D01*
X153132327Y-103944607D01*
X153132325Y-103944600D01*
X153116164Y-103904040D01*
X152999853Y-103612120D01*
X152832211Y-103295915D01*
X152631365Y-102999689D01*
X152631361Y-102999684D01*
X152631358Y-102999680D01*
X152399668Y-102726914D01*
X152361392Y-102690657D01*
X152139837Y-102480789D01*
X152139830Y-102480783D01*
X152139827Y-102480781D01*
X152040138Y-102405000D01*
X151854919Y-102264200D01*
X151548253Y-102079685D01*
X151548252Y-102079684D01*
X151548248Y-102079682D01*
X151548244Y-102079680D01*
X151223447Y-101929414D01*
X151223441Y-101929411D01*
X151223435Y-101929409D01*
X151013377Y-101858632D01*
X150884273Y-101815131D01*
X150534744Y-101738194D01*
X150178949Y-101699500D01*
X150178948Y-101699500D01*
X149821052Y-101699500D01*
X149821050Y-101699500D01*
X149465255Y-101738194D01*
X149115726Y-101815131D01*
X148916738Y-101882179D01*
X148776565Y-101929409D01*
X148776563Y-101929410D01*
X148776552Y-101929414D01*
X148451755Y-102079680D01*
X148451751Y-102079682D01*
X148223367Y-102217096D01*
X148145081Y-102264200D01*
X148056768Y-102331333D01*
X147860172Y-102480781D01*
X147860163Y-102480789D01*
X147600331Y-102726914D01*
X147368641Y-102999680D01*
X147368634Y-102999690D01*
X147167790Y-103295913D01*
X147167784Y-103295922D01*
X147000151Y-103612111D01*
X147000142Y-103612129D01*
X146867674Y-103944600D01*
X146867672Y-103944607D01*
X146771932Y-104289434D01*
X146771926Y-104289460D01*
X146714029Y-104642614D01*
X146714028Y-104642631D01*
X146698225Y-104934108D01*
X146694652Y-105000000D01*
X141492395Y-105000000D01*
X141529814Y-104939334D01*
X141584999Y-104772797D01*
X141595500Y-104670009D01*
X141595499Y-103329992D01*
X141584999Y-103227203D01*
X141529814Y-103060666D01*
X141437712Y-102911344D01*
X141313656Y-102787288D01*
X141164334Y-102695186D01*
X141164332Y-102695185D01*
X141164325Y-102695181D01*
X141163165Y-102694640D01*
X141162503Y-102694057D01*
X141158187Y-102691395D01*
X141158642Y-102690657D01*
X141110727Y-102648466D01*
X141091577Y-102581272D01*
X141111795Y-102514392D01*
X141127892Y-102494578D01*
X141269977Y-102352493D01*
X141396728Y-102178036D01*
X141494627Y-101985901D01*
X141561266Y-101780809D01*
X141572481Y-101710000D01*
X140542709Y-101710000D01*
X140554452Y-101689661D01*
X140595000Y-101538333D01*
X140595000Y-101381667D01*
X140554452Y-101230339D01*
X140542709Y-101210000D01*
X141572481Y-101210000D01*
X141561266Y-101139190D01*
X141494627Y-100934098D01*
X141396728Y-100741963D01*
X141269974Y-100567503D01*
X141269974Y-100567502D01*
X141117497Y-100415025D01*
X140943036Y-100288271D01*
X140750901Y-100190372D01*
X140545809Y-100123734D01*
X140332820Y-100090000D01*
X140250000Y-100090000D01*
X140250000Y-100917290D01*
X140229661Y-100905548D01*
X140078333Y-100865000D01*
X139921667Y-100865000D01*
X139770339Y-100905548D01*
X139750000Y-100917290D01*
X139750000Y-100090000D01*
X139667180Y-100090000D01*
X139454190Y-100123734D01*
X139249098Y-100190372D01*
X139056963Y-100288271D01*
X138882503Y-100415025D01*
X138882502Y-100415025D01*
X138730025Y-100567502D01*
X138730025Y-100567503D01*
X138603271Y-100741963D01*
X138505372Y-100934098D01*
X138438733Y-101139190D01*
X138427519Y-101210000D01*
X139457291Y-101210000D01*
X139445548Y-101230339D01*
X139405000Y-101381667D01*
X139405000Y-101538333D01*
X139445548Y-101689661D01*
X139457291Y-101710000D01*
X138427519Y-101710000D01*
X138438733Y-101780809D01*
X138505372Y-101985901D01*
X138603271Y-102178036D01*
X138730025Y-102352496D01*
X138730025Y-102352497D01*
X138872107Y-102494579D01*
X138905592Y-102555902D01*
X138900608Y-102625594D01*
X138858736Y-102681527D01*
X138836840Y-102694638D01*
X138835672Y-102695182D01*
X138686342Y-102787289D01*
X138562289Y-102911342D01*
X138470187Y-103060663D01*
X138470185Y-103060668D01*
X138442349Y-103144670D01*
X138415001Y-103227203D01*
X138415001Y-103227204D01*
X138415000Y-103227204D01*
X138404500Y-103329983D01*
X126595498Y-103329983D01*
X126584999Y-103227203D01*
X126529814Y-103060666D01*
X126437712Y-102911344D01*
X126313656Y-102787288D01*
X126164334Y-102695186D01*
X126164332Y-102695185D01*
X126164325Y-102695181D01*
X126163165Y-102694640D01*
X126162503Y-102694057D01*
X126158187Y-102691395D01*
X126158642Y-102690657D01*
X126110727Y-102648466D01*
X126091577Y-102581272D01*
X126111795Y-102514392D01*
X126127892Y-102494578D01*
X126269977Y-102352493D01*
X126396728Y-102178036D01*
X126494627Y-101985901D01*
X126561266Y-101780809D01*
X126572481Y-101710000D01*
X125542709Y-101710000D01*
X125554452Y-101689661D01*
X125595000Y-101538333D01*
X125595000Y-101381667D01*
X125554452Y-101230339D01*
X125542709Y-101210000D01*
X126572481Y-101210000D01*
X126561266Y-101139190D01*
X126494627Y-100934098D01*
X126396728Y-100741963D01*
X126269974Y-100567503D01*
X126269974Y-100567502D01*
X126117497Y-100415025D01*
X125943036Y-100288271D01*
X125750901Y-100190372D01*
X125545809Y-100123734D01*
X125332820Y-100090000D01*
X125250000Y-100090000D01*
X125250000Y-100917290D01*
X125229661Y-100905548D01*
X125078333Y-100865000D01*
X124921667Y-100865000D01*
X124770339Y-100905548D01*
X124750000Y-100917290D01*
X124750000Y-100090000D01*
X124667180Y-100090000D01*
X124454190Y-100123734D01*
X124249098Y-100190372D01*
X124056963Y-100288271D01*
X123882503Y-100415025D01*
X123882502Y-100415025D01*
X123730025Y-100567502D01*
X123730025Y-100567503D01*
X123603271Y-100741963D01*
X123505372Y-100934098D01*
X123438733Y-101139190D01*
X123427519Y-101210000D01*
X124457291Y-101210000D01*
X124445548Y-101230339D01*
X124405000Y-101381667D01*
X124405000Y-101538333D01*
X124445548Y-101689661D01*
X124457291Y-101710000D01*
X123427519Y-101710000D01*
X123438733Y-101780809D01*
X123505372Y-101985901D01*
X123603271Y-102178036D01*
X123730025Y-102352496D01*
X123730025Y-102352497D01*
X123872107Y-102494579D01*
X123905592Y-102555902D01*
X123900608Y-102625594D01*
X123858736Y-102681527D01*
X123836840Y-102694638D01*
X123835672Y-102695182D01*
X123686342Y-102787289D01*
X123562289Y-102911342D01*
X123470187Y-103060663D01*
X123470185Y-103060668D01*
X123442349Y-103144670D01*
X123415001Y-103227203D01*
X123415001Y-103227204D01*
X123415000Y-103227204D01*
X123404500Y-103329983D01*
X116570500Y-103329983D01*
X116570500Y-102667133D01*
X116536754Y-102454077D01*
X116536754Y-102454074D01*
X116470092Y-102248911D01*
X116372157Y-102056701D01*
X116245359Y-101882179D01*
X116092821Y-101729641D01*
X115918299Y-101602843D01*
X115726089Y-101504908D01*
X115520926Y-101438246D01*
X115520924Y-101438245D01*
X115520922Y-101438245D01*
X115307866Y-101404500D01*
X115307861Y-101404500D01*
X115092139Y-101404500D01*
X115092134Y-101404500D01*
X114879077Y-101438245D01*
X114673908Y-101504909D01*
X114481700Y-101602843D01*
X114382129Y-101675186D01*
X114307179Y-101729641D01*
X114307177Y-101729643D01*
X114307176Y-101729643D01*
X114154643Y-101882176D01*
X114154643Y-101882177D01*
X114154641Y-101882179D01*
X114120326Y-101929410D01*
X114030318Y-102053294D01*
X113974988Y-102095959D01*
X113905374Y-102101938D01*
X113843579Y-102069332D01*
X113829682Y-102053294D01*
X113792639Y-102002309D01*
X113705359Y-101882179D01*
X113552821Y-101729641D01*
X113378299Y-101602843D01*
X113186089Y-101504908D01*
X112980926Y-101438246D01*
X112980924Y-101438245D01*
X112980922Y-101438245D01*
X112767866Y-101404500D01*
X112767861Y-101404500D01*
X112552139Y-101404500D01*
X112552134Y-101404500D01*
X112339077Y-101438245D01*
X112133908Y-101504909D01*
X111941700Y-101602843D01*
X111842129Y-101675186D01*
X111767179Y-101729641D01*
X111767177Y-101729643D01*
X111767176Y-101729643D01*
X111614643Y-101882176D01*
X111614643Y-101882177D01*
X111614641Y-101882179D01*
X111580326Y-101929410D01*
X111490318Y-102053294D01*
X111434988Y-102095959D01*
X111365374Y-102101938D01*
X111303579Y-102069332D01*
X111289682Y-102053294D01*
X111252639Y-102002309D01*
X111165359Y-101882179D01*
X111012821Y-101729641D01*
X110838299Y-101602843D01*
X110646089Y-101504908D01*
X110440926Y-101438246D01*
X110440924Y-101438245D01*
X110440922Y-101438245D01*
X110227866Y-101404500D01*
X110227861Y-101404500D01*
X110012139Y-101404500D01*
X110012134Y-101404500D01*
X109799077Y-101438245D01*
X109593908Y-101504909D01*
X109401700Y-101602843D01*
X109302129Y-101675186D01*
X109227179Y-101729641D01*
X109227177Y-101729643D01*
X109227176Y-101729643D01*
X109074643Y-101882176D01*
X109074643Y-101882177D01*
X109074641Y-101882179D01*
X109040326Y-101929410D01*
X108950318Y-102053294D01*
X108894988Y-102095959D01*
X108825374Y-102101938D01*
X108763579Y-102069332D01*
X108749682Y-102053294D01*
X108712639Y-102002309D01*
X108625359Y-101882179D01*
X108472821Y-101729641D01*
X108298299Y-101602843D01*
X108106089Y-101504908D01*
X107900926Y-101438246D01*
X107900924Y-101438245D01*
X107900922Y-101438245D01*
X107687866Y-101404500D01*
X107687861Y-101404500D01*
X107472139Y-101404500D01*
X107472134Y-101404500D01*
X107259077Y-101438245D01*
X107053908Y-101504909D01*
X106861700Y-101602843D01*
X106762129Y-101675186D01*
X106687179Y-101729641D01*
X106687177Y-101729643D01*
X106687176Y-101729643D01*
X106534643Y-101882176D01*
X106534643Y-101882177D01*
X106534641Y-101882179D01*
X106500326Y-101929410D01*
X106410318Y-102053294D01*
X106354988Y-102095959D01*
X106285374Y-102101938D01*
X106223579Y-102069332D01*
X106209682Y-102053294D01*
X106172639Y-102002309D01*
X106085359Y-101882179D01*
X105932821Y-101729641D01*
X105758299Y-101602843D01*
X105566089Y-101504908D01*
X105360926Y-101438246D01*
X105360924Y-101438245D01*
X105360922Y-101438245D01*
X105147866Y-101404500D01*
X105147861Y-101404500D01*
X104932139Y-101404500D01*
X104932134Y-101404500D01*
X104719077Y-101438245D01*
X104513908Y-101504909D01*
X104321700Y-101602843D01*
X104222129Y-101675186D01*
X104147179Y-101729641D01*
X104147177Y-101729643D01*
X104147176Y-101729643D01*
X103994643Y-101882176D01*
X103994643Y-101882177D01*
X103994641Y-101882179D01*
X103960326Y-101929410D01*
X103870318Y-102053294D01*
X103814988Y-102095959D01*
X103745374Y-102101938D01*
X103683579Y-102069332D01*
X103669682Y-102053294D01*
X103632639Y-102002309D01*
X103545359Y-101882179D01*
X103392821Y-101729641D01*
X103218299Y-101602843D01*
X103026089Y-101504908D01*
X102820926Y-101438246D01*
X102820924Y-101438245D01*
X102820922Y-101438245D01*
X102607866Y-101404500D01*
X102607861Y-101404500D01*
X102392139Y-101404500D01*
X102392134Y-101404500D01*
X102179077Y-101438245D01*
X101973908Y-101504909D01*
X101781700Y-101602843D01*
X101607180Y-101729640D01*
X101464816Y-101872004D01*
X101403493Y-101905488D01*
X101333801Y-101900504D01*
X101277868Y-101858632D01*
X101264748Y-101836716D01*
X101264356Y-101835876D01*
X101172315Y-101686654D01*
X101048345Y-101562684D01*
X100899124Y-101470643D01*
X100899119Y-101470641D01*
X100732697Y-101415494D01*
X100732690Y-101415493D01*
X100629986Y-101405000D01*
X100210000Y-101405000D01*
X100210000Y-102457290D01*
X100189661Y-102445548D01*
X100038333Y-102405000D01*
X99881667Y-102405000D01*
X99730339Y-102445548D01*
X99710000Y-102457290D01*
X99710000Y-101405000D01*
X99290028Y-101405000D01*
X99290012Y-101405001D01*
X99187302Y-101415494D01*
X99020880Y-101470641D01*
X99020875Y-101470643D01*
X98871654Y-101562684D01*
X98747684Y-101686654D01*
X98655643Y-101835875D01*
X98655641Y-101835880D01*
X98600494Y-102002302D01*
X98600493Y-102002309D01*
X98590000Y-102105013D01*
X91590348Y-102105013D01*
X91548253Y-102079685D01*
X91548252Y-102079684D01*
X91548248Y-102079682D01*
X91548244Y-102079680D01*
X91223447Y-101929414D01*
X91223441Y-101929411D01*
X91223435Y-101929409D01*
X91013377Y-101858632D01*
X90884273Y-101815131D01*
X90534744Y-101738194D01*
X90178949Y-101699500D01*
X90178948Y-101699500D01*
X89821052Y-101699500D01*
X89821050Y-101699500D01*
X89465255Y-101738194D01*
X89115726Y-101815131D01*
X88916738Y-101882179D01*
X88776565Y-101929409D01*
X88776563Y-101929410D01*
X88776552Y-101929414D01*
X88451755Y-102079680D01*
X88451751Y-102079682D01*
X88223367Y-102217096D01*
X88145081Y-102264200D01*
X88056768Y-102331333D01*
X87860172Y-102480781D01*
X87860163Y-102480789D01*
X87600331Y-102726914D01*
X87368641Y-102999680D01*
X87368634Y-102999690D01*
X87167790Y-103295913D01*
X87167784Y-103295922D01*
X87000151Y-103612111D01*
X87000142Y-103612129D01*
X86867674Y-103944600D01*
X86867672Y-103944607D01*
X86771932Y-104289434D01*
X86771926Y-104289460D01*
X86714029Y-104642614D01*
X86714028Y-104642631D01*
X86698225Y-104934108D01*
X86694652Y-105000000D01*
X85500559Y-105000000D01*
X85500500Y-104997293D01*
X85500500Y-85002706D01*
X85500559Y-84999997D01*
X86694652Y-84999997D01*
X86694652Y-85000002D01*
X86714028Y-85357368D01*
X86714029Y-85357385D01*
X86771926Y-85710539D01*
X86771932Y-85710565D01*
X86867672Y-86055392D01*
X86867674Y-86055399D01*
X87000142Y-86387870D01*
X87000151Y-86387888D01*
X87167784Y-86704077D01*
X87167790Y-86704086D01*
X87368634Y-87000309D01*
X87368641Y-87000319D01*
X87600331Y-87273085D01*
X87600332Y-87273086D01*
X87860163Y-87519211D01*
X88145081Y-87735800D01*
X88451747Y-87920315D01*
X88451749Y-87920316D01*
X88451751Y-87920317D01*
X88451755Y-87920319D01*
X88776552Y-88070585D01*
X88776565Y-88070591D01*
X89115726Y-88184868D01*
X89465254Y-88261805D01*
X89821052Y-88300500D01*
X89821058Y-88300500D01*
X90178942Y-88300500D01*
X90178948Y-88300500D01*
X90534746Y-88261805D01*
X90884274Y-88184868D01*
X91223435Y-88070591D01*
X91548253Y-87920315D01*
X91854919Y-87735800D01*
X92139837Y-87519211D01*
X92339603Y-87329983D01*
X98404500Y-87329983D01*
X98404500Y-88670001D01*
X98404501Y-88670018D01*
X98415000Y-88772796D01*
X98415001Y-88772799D01*
X98470185Y-88939331D01*
X98470186Y-88939334D01*
X98562288Y-89088656D01*
X98686344Y-89212712D01*
X98835666Y-89304814D01*
X99002203Y-89359999D01*
X99104991Y-89370500D01*
X100895008Y-89370499D01*
X100997797Y-89359999D01*
X101164334Y-89304814D01*
X101313656Y-89212712D01*
X101437712Y-89088656D01*
X101529814Y-88939334D01*
X101584999Y-88772797D01*
X101595500Y-88670009D01*
X101595499Y-87329992D01*
X101595498Y-87329983D01*
X108944500Y-87329983D01*
X108944500Y-88670001D01*
X108944501Y-88670018D01*
X108955000Y-88772796D01*
X108955001Y-88772799D01*
X109010185Y-88939331D01*
X109010186Y-88939334D01*
X109102288Y-89088656D01*
X109226344Y-89212712D01*
X109375666Y-89304814D01*
X109542203Y-89359999D01*
X109644991Y-89370500D01*
X111435008Y-89370499D01*
X111537797Y-89359999D01*
X111704334Y-89304814D01*
X111853656Y-89212712D01*
X111977712Y-89088656D01*
X112069814Y-88939334D01*
X112124999Y-88772797D01*
X112135500Y-88670009D01*
X112135499Y-87329992D01*
X112135498Y-87329983D01*
X118444500Y-87329983D01*
X118444500Y-88670001D01*
X118444501Y-88670018D01*
X118455000Y-88772796D01*
X118455001Y-88772799D01*
X118510185Y-88939331D01*
X118510186Y-88939334D01*
X118602288Y-89088656D01*
X118726344Y-89212712D01*
X118875666Y-89304814D01*
X119042203Y-89359999D01*
X119144991Y-89370500D01*
X120935008Y-89370499D01*
X121037797Y-89359999D01*
X121204334Y-89304814D01*
X121353656Y-89212712D01*
X121477712Y-89088656D01*
X121569814Y-88939334D01*
X121624999Y-88772797D01*
X121635500Y-88670009D01*
X121635499Y-87329992D01*
X121635498Y-87329983D01*
X128444500Y-87329983D01*
X128444500Y-88670001D01*
X128444501Y-88670018D01*
X128455000Y-88772796D01*
X128455001Y-88772799D01*
X128510185Y-88939331D01*
X128510186Y-88939334D01*
X128602288Y-89088656D01*
X128726344Y-89212712D01*
X128875666Y-89304814D01*
X129042203Y-89359999D01*
X129144991Y-89370500D01*
X130935008Y-89370499D01*
X131037797Y-89359999D01*
X131204334Y-89304814D01*
X131353656Y-89212712D01*
X131477712Y-89088656D01*
X131569814Y-88939334D01*
X131624999Y-88772797D01*
X131635500Y-88670009D01*
X131635499Y-87329992D01*
X131635498Y-87329983D01*
X138444500Y-87329983D01*
X138444500Y-88670001D01*
X138444501Y-88670018D01*
X138455000Y-88772796D01*
X138455001Y-88772799D01*
X138510185Y-88939331D01*
X138510186Y-88939334D01*
X138602288Y-89088656D01*
X138726344Y-89212712D01*
X138875666Y-89304814D01*
X139042203Y-89359999D01*
X139144991Y-89370500D01*
X140935008Y-89370499D01*
X141037797Y-89359999D01*
X141204334Y-89304814D01*
X141353656Y-89212712D01*
X141477712Y-89088656D01*
X141569814Y-88939334D01*
X141624999Y-88772797D01*
X141635500Y-88670009D01*
X141635499Y-87329992D01*
X141624999Y-87227203D01*
X141569814Y-87060666D01*
X141477712Y-86911344D01*
X141353656Y-86787288D01*
X141204334Y-86695186D01*
X141204332Y-86695185D01*
X141204325Y-86695181D01*
X141203165Y-86694640D01*
X141202503Y-86694057D01*
X141198187Y-86691395D01*
X141198642Y-86690657D01*
X141150727Y-86648466D01*
X141131577Y-86581272D01*
X141151795Y-86514392D01*
X141167892Y-86494578D01*
X141309977Y-86352493D01*
X141436728Y-86178036D01*
X141534627Y-85985901D01*
X141601266Y-85780809D01*
X141612481Y-85710000D01*
X140582709Y-85710000D01*
X140594452Y-85689661D01*
X140635000Y-85538333D01*
X140635000Y-85381667D01*
X140594452Y-85230339D01*
X140582709Y-85210000D01*
X141612481Y-85210000D01*
X141601266Y-85139190D01*
X141556039Y-84999997D01*
X146694652Y-84999997D01*
X146694652Y-85000002D01*
X146714028Y-85357368D01*
X146714029Y-85357385D01*
X146771926Y-85710539D01*
X146771932Y-85710565D01*
X146867672Y-86055392D01*
X146867674Y-86055399D01*
X147000142Y-86387870D01*
X147000151Y-86387888D01*
X147167784Y-86704077D01*
X147167790Y-86704086D01*
X147368634Y-87000309D01*
X147368641Y-87000319D01*
X147600331Y-87273085D01*
X147600332Y-87273086D01*
X147860163Y-87519211D01*
X148145081Y-87735800D01*
X148451747Y-87920315D01*
X148451749Y-87920316D01*
X148451751Y-87920317D01*
X148451755Y-87920319D01*
X148776552Y-88070585D01*
X148776565Y-88070591D01*
X149115726Y-88184868D01*
X149465254Y-88261805D01*
X149821052Y-88300500D01*
X149821058Y-88300500D01*
X150178942Y-88300500D01*
X150178948Y-88300500D01*
X150534746Y-88261805D01*
X150884274Y-88184868D01*
X151223435Y-88070591D01*
X151548253Y-87920315D01*
X151854919Y-87735800D01*
X152139837Y-87519211D01*
X152399668Y-87273086D01*
X152631365Y-87000311D01*
X152832211Y-86704085D01*
X152999853Y-86387880D01*
X153132324Y-86055403D01*
X153228071Y-85710552D01*
X153285972Y-85357371D01*
X153305348Y-85000000D01*
X153305201Y-84997297D01*
X153300227Y-84905548D01*
X153285972Y-84642629D01*
X153281155Y-84613249D01*
X153228073Y-84289460D01*
X153228072Y-84289459D01*
X153228071Y-84289448D01*
X153132324Y-83944597D01*
X152999853Y-83612120D01*
X152832211Y-83295915D01*
X152631365Y-82999689D01*
X152631361Y-82999684D01*
X152631358Y-82999680D01*
X152399668Y-82726914D01*
X152291882Y-82624814D01*
X152139837Y-82480789D01*
X152139830Y-82480783D01*
X152139827Y-82480781D01*
X152058809Y-82419193D01*
X151854919Y-82264200D01*
X151548253Y-82079685D01*
X151548252Y-82079684D01*
X151548248Y-82079682D01*
X151548244Y-82079680D01*
X151223447Y-81929414D01*
X151223441Y-81929411D01*
X151223435Y-81929409D01*
X151010083Y-81857522D01*
X150884273Y-81815131D01*
X150534744Y-81738194D01*
X150178949Y-81699500D01*
X150178948Y-81699500D01*
X149821052Y-81699500D01*
X149821050Y-81699500D01*
X149465255Y-81738194D01*
X149115726Y-81815131D01*
X148859970Y-81901306D01*
X148776565Y-81929409D01*
X148776563Y-81929410D01*
X148776552Y-81929414D01*
X148451755Y-82079680D01*
X148451751Y-82079682D01*
X148397924Y-82112069D01*
X148145081Y-82264200D01*
X148056768Y-82331333D01*
X147860172Y-82480781D01*
X147860163Y-82480789D01*
X147600331Y-82726914D01*
X147368641Y-82999680D01*
X147368634Y-82999690D01*
X147167790Y-83295913D01*
X147167784Y-83295922D01*
X147000151Y-83612111D01*
X147000142Y-83612129D01*
X146867674Y-83944600D01*
X146867672Y-83944607D01*
X146771932Y-84289434D01*
X146771926Y-84289460D01*
X146714029Y-84642614D01*
X146714028Y-84642631D01*
X146694652Y-84999997D01*
X141556039Y-84999997D01*
X141534627Y-84934098D01*
X141436728Y-84741963D01*
X141309974Y-84567503D01*
X141309974Y-84567502D01*
X141157497Y-84415025D01*
X140983036Y-84288271D01*
X140790901Y-84190372D01*
X140585809Y-84123734D01*
X140372820Y-84090000D01*
X140290000Y-84090000D01*
X140290000Y-84917290D01*
X140269661Y-84905548D01*
X140118333Y-84865000D01*
X139961667Y-84865000D01*
X139810339Y-84905548D01*
X139790000Y-84917290D01*
X139790000Y-84090000D01*
X139707180Y-84090000D01*
X139494190Y-84123734D01*
X139289098Y-84190372D01*
X139096963Y-84288271D01*
X138922503Y-84415025D01*
X138922502Y-84415025D01*
X138770025Y-84567502D01*
X138770025Y-84567503D01*
X138643271Y-84741963D01*
X138545372Y-84934098D01*
X138478733Y-85139190D01*
X138467519Y-85210000D01*
X139497291Y-85210000D01*
X139485548Y-85230339D01*
X139445000Y-85381667D01*
X139445000Y-85538333D01*
X139485548Y-85689661D01*
X139497291Y-85710000D01*
X138467519Y-85710000D01*
X138478733Y-85780809D01*
X138545372Y-85985901D01*
X138643271Y-86178036D01*
X138770025Y-86352496D01*
X138770025Y-86352497D01*
X138912107Y-86494579D01*
X138945592Y-86555902D01*
X138940608Y-86625594D01*
X138898736Y-86681527D01*
X138876840Y-86694638D01*
X138875672Y-86695182D01*
X138726342Y-86787289D01*
X138602289Y-86911342D01*
X138510187Y-87060663D01*
X138510186Y-87060666D01*
X138455001Y-87227203D01*
X138455001Y-87227204D01*
X138455000Y-87227204D01*
X138444500Y-87329983D01*
X131635498Y-87329983D01*
X131624999Y-87227203D01*
X131569814Y-87060666D01*
X131477712Y-86911344D01*
X131353656Y-86787288D01*
X131204334Y-86695186D01*
X131204332Y-86695185D01*
X131204325Y-86695181D01*
X131203165Y-86694640D01*
X131202503Y-86694057D01*
X131198187Y-86691395D01*
X131198642Y-86690657D01*
X131150727Y-86648466D01*
X131131577Y-86581272D01*
X131151795Y-86514392D01*
X131167892Y-86494578D01*
X131309977Y-86352493D01*
X131436728Y-86178036D01*
X131534627Y-85985901D01*
X131601266Y-85780809D01*
X131612481Y-85710000D01*
X130582709Y-85710000D01*
X130594452Y-85689661D01*
X130635000Y-85538333D01*
X130635000Y-85381667D01*
X130594452Y-85230339D01*
X130582709Y-85210000D01*
X131612481Y-85210000D01*
X131601266Y-85139190D01*
X131534627Y-84934098D01*
X131436728Y-84741963D01*
X131309974Y-84567503D01*
X131309974Y-84567502D01*
X131157497Y-84415025D01*
X130983036Y-84288271D01*
X130790901Y-84190372D01*
X130585809Y-84123734D01*
X130372820Y-84090000D01*
X130290000Y-84090000D01*
X130290000Y-84917290D01*
X130269661Y-84905548D01*
X130118333Y-84865000D01*
X129961667Y-84865000D01*
X129810339Y-84905548D01*
X129790000Y-84917290D01*
X129790000Y-84090000D01*
X129707180Y-84090000D01*
X129494190Y-84123734D01*
X129289098Y-84190372D01*
X129096963Y-84288271D01*
X128922503Y-84415025D01*
X128922502Y-84415025D01*
X128770025Y-84567502D01*
X128770025Y-84567503D01*
X128643271Y-84741963D01*
X128545372Y-84934098D01*
X128478733Y-85139190D01*
X128467519Y-85210000D01*
X129497291Y-85210000D01*
X129485548Y-85230339D01*
X129445000Y-85381667D01*
X129445000Y-85538333D01*
X129485548Y-85689661D01*
X129497291Y-85710000D01*
X128467519Y-85710000D01*
X128478733Y-85780809D01*
X128545372Y-85985901D01*
X128643271Y-86178036D01*
X128770025Y-86352496D01*
X128770025Y-86352497D01*
X128912107Y-86494579D01*
X128945592Y-86555902D01*
X128940608Y-86625594D01*
X128898736Y-86681527D01*
X128876840Y-86694638D01*
X128875672Y-86695182D01*
X128726342Y-86787289D01*
X128602289Y-86911342D01*
X128510187Y-87060663D01*
X128510186Y-87060666D01*
X128455001Y-87227203D01*
X128455001Y-87227204D01*
X128455000Y-87227204D01*
X128444500Y-87329983D01*
X121635498Y-87329983D01*
X121624999Y-87227203D01*
X121569814Y-87060666D01*
X121477712Y-86911344D01*
X121353656Y-86787288D01*
X121204334Y-86695186D01*
X121204332Y-86695185D01*
X121204325Y-86695181D01*
X121203165Y-86694640D01*
X121202503Y-86694057D01*
X121198187Y-86691395D01*
X121198642Y-86690657D01*
X121150727Y-86648466D01*
X121131577Y-86581272D01*
X121151795Y-86514392D01*
X121167892Y-86494578D01*
X121309977Y-86352493D01*
X121436728Y-86178036D01*
X121534627Y-85985901D01*
X121601266Y-85780809D01*
X121612481Y-85710000D01*
X120582709Y-85710000D01*
X120594452Y-85689661D01*
X120635000Y-85538333D01*
X120635000Y-85381667D01*
X120594452Y-85230339D01*
X120582709Y-85210000D01*
X121612481Y-85210000D01*
X121601266Y-85139190D01*
X121534627Y-84934098D01*
X121436728Y-84741963D01*
X121309974Y-84567503D01*
X121309974Y-84567502D01*
X121157497Y-84415025D01*
X120983036Y-84288271D01*
X120790901Y-84190372D01*
X120585809Y-84123734D01*
X120372820Y-84090000D01*
X120290000Y-84090000D01*
X120290000Y-84917290D01*
X120269661Y-84905548D01*
X120118333Y-84865000D01*
X119961667Y-84865000D01*
X119810339Y-84905548D01*
X119790000Y-84917290D01*
X119790000Y-84090000D01*
X119707180Y-84090000D01*
X119494190Y-84123734D01*
X119289098Y-84190372D01*
X119096963Y-84288271D01*
X118922503Y-84415025D01*
X118922502Y-84415025D01*
X118770025Y-84567502D01*
X118770025Y-84567503D01*
X118643271Y-84741963D01*
X118545372Y-84934098D01*
X118478733Y-85139190D01*
X118467519Y-85210000D01*
X119497291Y-85210000D01*
X119485548Y-85230339D01*
X119445000Y-85381667D01*
X119445000Y-85538333D01*
X119485548Y-85689661D01*
X119497291Y-85710000D01*
X118467519Y-85710000D01*
X118478733Y-85780809D01*
X118545372Y-85985901D01*
X118643271Y-86178036D01*
X118770025Y-86352496D01*
X118770025Y-86352497D01*
X118912107Y-86494579D01*
X118945592Y-86555902D01*
X118940608Y-86625594D01*
X118898736Y-86681527D01*
X118876840Y-86694638D01*
X118875672Y-86695182D01*
X118726342Y-86787289D01*
X118602289Y-86911342D01*
X118510187Y-87060663D01*
X118510186Y-87060666D01*
X118455001Y-87227203D01*
X118455001Y-87227204D01*
X118455000Y-87227204D01*
X118444500Y-87329983D01*
X112135498Y-87329983D01*
X112124999Y-87227203D01*
X112069814Y-87060666D01*
X111977712Y-86911344D01*
X111853656Y-86787288D01*
X111704334Y-86695186D01*
X111704332Y-86695185D01*
X111704325Y-86695181D01*
X111703165Y-86694640D01*
X111702503Y-86694057D01*
X111698187Y-86691395D01*
X111698642Y-86690657D01*
X111650727Y-86648466D01*
X111631577Y-86581272D01*
X111651795Y-86514392D01*
X111667892Y-86494578D01*
X111809977Y-86352493D01*
X111936728Y-86178036D01*
X112034627Y-85985901D01*
X112101266Y-85780809D01*
X112112481Y-85710000D01*
X111082709Y-85710000D01*
X111094452Y-85689661D01*
X111135000Y-85538333D01*
X111135000Y-85381667D01*
X111094452Y-85230339D01*
X111082709Y-85210000D01*
X112112481Y-85210000D01*
X112101266Y-85139190D01*
X112034627Y-84934098D01*
X111936728Y-84741963D01*
X111809974Y-84567503D01*
X111809974Y-84567502D01*
X111657497Y-84415025D01*
X111483036Y-84288271D01*
X111290901Y-84190372D01*
X111085809Y-84123734D01*
X110872820Y-84090000D01*
X110790000Y-84090000D01*
X110790000Y-84917290D01*
X110769661Y-84905548D01*
X110618333Y-84865000D01*
X110461667Y-84865000D01*
X110310339Y-84905548D01*
X110290000Y-84917290D01*
X110290000Y-84090000D01*
X110207180Y-84090000D01*
X109994190Y-84123734D01*
X109789098Y-84190372D01*
X109596963Y-84288271D01*
X109422503Y-84415025D01*
X109422502Y-84415025D01*
X109270025Y-84567502D01*
X109270025Y-84567503D01*
X109143271Y-84741963D01*
X109045372Y-84934098D01*
X108978733Y-85139190D01*
X108967519Y-85210000D01*
X109997291Y-85210000D01*
X109985548Y-85230339D01*
X109945000Y-85381667D01*
X109945000Y-85538333D01*
X109985548Y-85689661D01*
X109997291Y-85710000D01*
X108967519Y-85710000D01*
X108978733Y-85780809D01*
X109045372Y-85985901D01*
X109143271Y-86178036D01*
X109270025Y-86352496D01*
X109270025Y-86352497D01*
X109412107Y-86494579D01*
X109445592Y-86555902D01*
X109440608Y-86625594D01*
X109398736Y-86681527D01*
X109376840Y-86694638D01*
X109375672Y-86695182D01*
X109226342Y-86787289D01*
X109102289Y-86911342D01*
X109010187Y-87060663D01*
X109010186Y-87060666D01*
X108955001Y-87227203D01*
X108955001Y-87227204D01*
X108955000Y-87227204D01*
X108944500Y-87329983D01*
X101595498Y-87329983D01*
X101584999Y-87227203D01*
X101529814Y-87060666D01*
X101437712Y-86911344D01*
X101313656Y-86787288D01*
X101164334Y-86695186D01*
X101164332Y-86695185D01*
X101164325Y-86695181D01*
X101163165Y-86694640D01*
X101162503Y-86694057D01*
X101158187Y-86691395D01*
X101158642Y-86690657D01*
X101110727Y-86648466D01*
X101091577Y-86581272D01*
X101111795Y-86514392D01*
X101127892Y-86494578D01*
X101269977Y-86352493D01*
X101396728Y-86178036D01*
X101494627Y-85985901D01*
X101561266Y-85780809D01*
X101572481Y-85710000D01*
X100542709Y-85710000D01*
X100554452Y-85689661D01*
X100595000Y-85538333D01*
X100595000Y-85381667D01*
X100554452Y-85230339D01*
X100542709Y-85210000D01*
X101572481Y-85210000D01*
X101561266Y-85139190D01*
X101494627Y-84934098D01*
X101396728Y-84741963D01*
X101269974Y-84567503D01*
X101269974Y-84567502D01*
X101117497Y-84415025D01*
X100943036Y-84288271D01*
X100750901Y-84190372D01*
X100545809Y-84123734D01*
X100332820Y-84090000D01*
X100250000Y-84090000D01*
X100250000Y-84917290D01*
X100229661Y-84905548D01*
X100078333Y-84865000D01*
X99921667Y-84865000D01*
X99770339Y-84905548D01*
X99750000Y-84917290D01*
X99750000Y-84090000D01*
X99667180Y-84090000D01*
X99454190Y-84123734D01*
X99249098Y-84190372D01*
X99056963Y-84288271D01*
X98882503Y-84415025D01*
X98882502Y-84415025D01*
X98730025Y-84567502D01*
X98730025Y-84567503D01*
X98603271Y-84741963D01*
X98505372Y-84934098D01*
X98438733Y-85139190D01*
X98427519Y-85210000D01*
X99457291Y-85210000D01*
X99445548Y-85230339D01*
X99405000Y-85381667D01*
X99405000Y-85538333D01*
X99445548Y-85689661D01*
X99457291Y-85710000D01*
X98427519Y-85710000D01*
X98438733Y-85780809D01*
X98505372Y-85985901D01*
X98603271Y-86178036D01*
X98730025Y-86352496D01*
X98730025Y-86352497D01*
X98872107Y-86494579D01*
X98905592Y-86555902D01*
X98900608Y-86625594D01*
X98858736Y-86681527D01*
X98836840Y-86694638D01*
X98835672Y-86695182D01*
X98686342Y-86787289D01*
X98562289Y-86911342D01*
X98470187Y-87060663D01*
X98470186Y-87060666D01*
X98415001Y-87227203D01*
X98415001Y-87227204D01*
X98415000Y-87227204D01*
X98404500Y-87329983D01*
X92339603Y-87329983D01*
X92399668Y-87273086D01*
X92631365Y-87000311D01*
X92832211Y-86704085D01*
X92999853Y-86387880D01*
X93132324Y-86055403D01*
X93228071Y-85710552D01*
X93285972Y-85357371D01*
X93305348Y-85000000D01*
X93305201Y-84997297D01*
X93300227Y-84905548D01*
X93285972Y-84642629D01*
X93281155Y-84613249D01*
X93228073Y-84289460D01*
X93228072Y-84289459D01*
X93228071Y-84289448D01*
X93132324Y-83944597D01*
X92999853Y-83612120D01*
X92832211Y-83295915D01*
X92631365Y-82999689D01*
X92631361Y-82999684D01*
X92631358Y-82999680D01*
X92399668Y-82726914D01*
X92291882Y-82624814D01*
X92139837Y-82480789D01*
X92139830Y-82480783D01*
X92139827Y-82480781D01*
X92058809Y-82419193D01*
X91854919Y-82264200D01*
X91548253Y-82079685D01*
X91548252Y-82079684D01*
X91548248Y-82079682D01*
X91548244Y-82079680D01*
X91223447Y-81929414D01*
X91223441Y-81929411D01*
X91223435Y-81929409D01*
X91010083Y-81857522D01*
X90884273Y-81815131D01*
X90534744Y-81738194D01*
X90178949Y-81699500D01*
X90178948Y-81699500D01*
X89821052Y-81699500D01*
X89821050Y-81699500D01*
X89465255Y-81738194D01*
X89115726Y-81815131D01*
X88859970Y-81901306D01*
X88776565Y-81929409D01*
X88776563Y-81929410D01*
X88776552Y-81929414D01*
X88451755Y-82079680D01*
X88451751Y-82079682D01*
X88397924Y-82112069D01*
X88145081Y-82264200D01*
X88056768Y-82331333D01*
X87860172Y-82480781D01*
X87860163Y-82480789D01*
X87600331Y-82726914D01*
X87368641Y-82999680D01*
X87368634Y-82999690D01*
X87167790Y-83295913D01*
X87167784Y-83295922D01*
X87000151Y-83612111D01*
X87000142Y-83612129D01*
X86867674Y-83944600D01*
X86867672Y-83944607D01*
X86771932Y-84289434D01*
X86771926Y-84289460D01*
X86714029Y-84642614D01*
X86714028Y-84642631D01*
X86694652Y-84999997D01*
X85500559Y-84999997D01*
X85500618Y-84997297D01*
X85506394Y-84865000D01*
X85517386Y-84613226D01*
X85518326Y-84602495D01*
X85568152Y-84224025D01*
X85570025Y-84213405D01*
X85652649Y-83840709D01*
X85655440Y-83830295D01*
X85770230Y-83466227D01*
X85773917Y-83456095D01*
X85920003Y-83103412D01*
X85924561Y-83093638D01*
X86100822Y-82755045D01*
X86106217Y-82745700D01*
X86311325Y-82423744D01*
X86317515Y-82414905D01*
X86549896Y-82112060D01*
X86556834Y-82103791D01*
X86814726Y-81822352D01*
X86822352Y-81814726D01*
X87103791Y-81556834D01*
X87112060Y-81549896D01*
X87414905Y-81317515D01*
X87423744Y-81311325D01*
X87745700Y-81106217D01*
X87755045Y-81100822D01*
X88093638Y-80924561D01*
X88103412Y-80920003D01*
X88456095Y-80773917D01*
X88466227Y-80770230D01*
X88830295Y-80655440D01*
X88840709Y-80652649D01*
X89213405Y-80570025D01*
X89224025Y-80568152D01*
X89602495Y-80518326D01*
X89613227Y-80517386D01*
X89997196Y-80500621D01*
X90002758Y-80500504D01*
X149925245Y-80597474D01*
G37*
%TD.AperFunction*%
%TD*%
M02*
