%TF.GenerationSoftware,KiCad,Pcbnew,8.0.7*%
%TF.CreationDate,2025-01-27T22:31:33-06:00*%
%TF.ProjectId,teensy-acc-pcb,7465656e-7379-42d6-9163-632d7063622e,rev?*%
%TF.SameCoordinates,Original*%
%TF.FileFunction,Legend,Bot*%
%TF.FilePolarity,Positive*%
%FSLAX46Y46*%
G04 Gerber Fmt 4.6, Leading zero omitted, Abs format (unit mm)*
G04 Created by KiCad (PCBNEW 8.0.7) date 2025-01-27 22:31:33*
%MOMM*%
%LPD*%
G01*
G04 APERTURE LIST*
%ADD10C,0.300000*%
G04 APERTURE END LIST*
D10*
X125428571Y-106800828D02*
X125428571Y-107872257D01*
X125428571Y-107872257D02*
X125500000Y-108086542D01*
X125500000Y-108086542D02*
X125642857Y-108229400D01*
X125642857Y-108229400D02*
X125857143Y-108300828D01*
X125857143Y-108300828D02*
X126000000Y-108300828D01*
X124000000Y-108300828D02*
X124714286Y-108300828D01*
X124714286Y-108300828D02*
X124714286Y-106800828D01*
X122642857Y-108157971D02*
X122714285Y-108229400D01*
X122714285Y-108229400D02*
X122928571Y-108300828D01*
X122928571Y-108300828D02*
X123071428Y-108300828D01*
X123071428Y-108300828D02*
X123285714Y-108229400D01*
X123285714Y-108229400D02*
X123428571Y-108086542D01*
X123428571Y-108086542D02*
X123500000Y-107943685D01*
X123500000Y-107943685D02*
X123571428Y-107657971D01*
X123571428Y-107657971D02*
X123571428Y-107443685D01*
X123571428Y-107443685D02*
X123500000Y-107157971D01*
X123500000Y-107157971D02*
X123428571Y-107015114D01*
X123428571Y-107015114D02*
X123285714Y-106872257D01*
X123285714Y-106872257D02*
X123071428Y-106800828D01*
X123071428Y-106800828D02*
X122928571Y-106800828D01*
X122928571Y-106800828D02*
X122714285Y-106872257D01*
X122714285Y-106872257D02*
X122642857Y-106943685D01*
X121571428Y-106800828D02*
X121571428Y-107872257D01*
X121571428Y-107872257D02*
X121642857Y-108086542D01*
X121642857Y-108086542D02*
X121785714Y-108229400D01*
X121785714Y-108229400D02*
X122000000Y-108300828D01*
X122000000Y-108300828D02*
X122142857Y-108300828D01*
X120142857Y-108300828D02*
X120857143Y-108300828D01*
X120857143Y-108300828D02*
X120857143Y-106800828D01*
X118785714Y-108157971D02*
X118857142Y-108229400D01*
X118857142Y-108229400D02*
X119071428Y-108300828D01*
X119071428Y-108300828D02*
X119214285Y-108300828D01*
X119214285Y-108300828D02*
X119428571Y-108229400D01*
X119428571Y-108229400D02*
X119571428Y-108086542D01*
X119571428Y-108086542D02*
X119642857Y-107943685D01*
X119642857Y-107943685D02*
X119714285Y-107657971D01*
X119714285Y-107657971D02*
X119714285Y-107443685D01*
X119714285Y-107443685D02*
X119642857Y-107157971D01*
X119642857Y-107157971D02*
X119571428Y-107015114D01*
X119571428Y-107015114D02*
X119428571Y-106872257D01*
X119428571Y-106872257D02*
X119214285Y-106800828D01*
X119214285Y-106800828D02*
X119071428Y-106800828D01*
X119071428Y-106800828D02*
X118857142Y-106872257D01*
X118857142Y-106872257D02*
X118785714Y-106943685D01*
X117714285Y-106800828D02*
X117714285Y-107872257D01*
X117714285Y-107872257D02*
X117785714Y-108086542D01*
X117785714Y-108086542D02*
X117928571Y-108229400D01*
X117928571Y-108229400D02*
X118142857Y-108300828D01*
X118142857Y-108300828D02*
X118285714Y-108300828D01*
X116285714Y-108300828D02*
X117000000Y-108300828D01*
X117000000Y-108300828D02*
X117000000Y-106800828D01*
X114928571Y-108157971D02*
X114999999Y-108229400D01*
X114999999Y-108229400D02*
X115214285Y-108300828D01*
X115214285Y-108300828D02*
X115357142Y-108300828D01*
X115357142Y-108300828D02*
X115571428Y-108229400D01*
X115571428Y-108229400D02*
X115714285Y-108086542D01*
X115714285Y-108086542D02*
X115785714Y-107943685D01*
X115785714Y-107943685D02*
X115857142Y-107657971D01*
X115857142Y-107657971D02*
X115857142Y-107443685D01*
X115857142Y-107443685D02*
X115785714Y-107157971D01*
X115785714Y-107157971D02*
X115714285Y-107015114D01*
X115714285Y-107015114D02*
X115571428Y-106872257D01*
X115571428Y-106872257D02*
X115357142Y-106800828D01*
X115357142Y-106800828D02*
X115214285Y-106800828D01*
X115214285Y-106800828D02*
X114999999Y-106872257D01*
X114999999Y-106872257D02*
X114928571Y-106943685D01*
X113857142Y-106800828D02*
X113857142Y-107872257D01*
X113857142Y-107872257D02*
X113928571Y-108086542D01*
X113928571Y-108086542D02*
X114071428Y-108229400D01*
X114071428Y-108229400D02*
X114285714Y-108300828D01*
X114285714Y-108300828D02*
X114428571Y-108300828D01*
X112428571Y-108300828D02*
X113142857Y-108300828D01*
X113142857Y-108300828D02*
X113142857Y-106800828D01*
X111071428Y-108157971D02*
X111142856Y-108229400D01*
X111142856Y-108229400D02*
X111357142Y-108300828D01*
X111357142Y-108300828D02*
X111499999Y-108300828D01*
X111499999Y-108300828D02*
X111714285Y-108229400D01*
X111714285Y-108229400D02*
X111857142Y-108086542D01*
X111857142Y-108086542D02*
X111928571Y-107943685D01*
X111928571Y-107943685D02*
X111999999Y-107657971D01*
X111999999Y-107657971D02*
X111999999Y-107443685D01*
X111999999Y-107443685D02*
X111928571Y-107157971D01*
X111928571Y-107157971D02*
X111857142Y-107015114D01*
X111857142Y-107015114D02*
X111714285Y-106872257D01*
X111714285Y-106872257D02*
X111499999Y-106800828D01*
X111499999Y-106800828D02*
X111357142Y-106800828D01*
X111357142Y-106800828D02*
X111142856Y-106872257D01*
X111142856Y-106872257D02*
X111071428Y-106943685D01*
X131035714Y-93470996D02*
X131035714Y-91970996D01*
X131035714Y-91970996D02*
X130678571Y-91970996D01*
X130678571Y-91970996D02*
X130464285Y-92042425D01*
X130464285Y-92042425D02*
X130321428Y-92185282D01*
X130321428Y-92185282D02*
X130249999Y-92328139D01*
X130249999Y-92328139D02*
X130178571Y-92613853D01*
X130178571Y-92613853D02*
X130178571Y-92828139D01*
X130178571Y-92828139D02*
X130249999Y-93113853D01*
X130249999Y-93113853D02*
X130321428Y-93256710D01*
X130321428Y-93256710D02*
X130464285Y-93399568D01*
X130464285Y-93399568D02*
X130678571Y-93470996D01*
X130678571Y-93470996D02*
X131035714Y-93470996D01*
X129535714Y-92685282D02*
X129035714Y-92685282D01*
X128821428Y-93470996D02*
X129535714Y-93470996D01*
X129535714Y-93470996D02*
X129535714Y-91970996D01*
X129535714Y-91970996D02*
X128821428Y-91970996D01*
X127321428Y-93470996D02*
X127821428Y-92756710D01*
X128178571Y-93470996D02*
X128178571Y-91970996D01*
X128178571Y-91970996D02*
X127607142Y-91970996D01*
X127607142Y-91970996D02*
X127464285Y-92042425D01*
X127464285Y-92042425D02*
X127392856Y-92113853D01*
X127392856Y-92113853D02*
X127321428Y-92256710D01*
X127321428Y-92256710D02*
X127321428Y-92470996D01*
X127321428Y-92470996D02*
X127392856Y-92613853D01*
X127392856Y-92613853D02*
X127464285Y-92685282D01*
X127464285Y-92685282D02*
X127607142Y-92756710D01*
X127607142Y-92756710D02*
X128178571Y-92756710D01*
X126678571Y-92685282D02*
X126178571Y-92685282D01*
X125964285Y-93470996D02*
X126678571Y-93470996D01*
X126678571Y-93470996D02*
X126678571Y-91970996D01*
X126678571Y-91970996D02*
X125964285Y-91970996D01*
X125321428Y-93470996D02*
X125321428Y-91970996D01*
X124464285Y-93470996D02*
X125107142Y-92613853D01*
X124464285Y-91970996D02*
X125321428Y-92828139D01*
X121821428Y-93470996D02*
X122321428Y-92756710D01*
X122678571Y-93470996D02*
X122678571Y-91970996D01*
X122678571Y-91970996D02*
X122107142Y-91970996D01*
X122107142Y-91970996D02*
X121964285Y-92042425D01*
X121964285Y-92042425D02*
X121892856Y-92113853D01*
X121892856Y-92113853D02*
X121821428Y-92256710D01*
X121821428Y-92256710D02*
X121821428Y-92470996D01*
X121821428Y-92470996D02*
X121892856Y-92613853D01*
X121892856Y-92613853D02*
X121964285Y-92685282D01*
X121964285Y-92685282D02*
X122107142Y-92756710D01*
X122107142Y-92756710D02*
X122678571Y-92756710D01*
X120892856Y-91970996D02*
X120607142Y-91970996D01*
X120607142Y-91970996D02*
X120464285Y-92042425D01*
X120464285Y-92042425D02*
X120321428Y-92185282D01*
X120321428Y-92185282D02*
X120249999Y-92470996D01*
X120249999Y-92470996D02*
X120249999Y-92970996D01*
X120249999Y-92970996D02*
X120321428Y-93256710D01*
X120321428Y-93256710D02*
X120464285Y-93399568D01*
X120464285Y-93399568D02*
X120607142Y-93470996D01*
X120607142Y-93470996D02*
X120892856Y-93470996D01*
X120892856Y-93470996D02*
X121035714Y-93399568D01*
X121035714Y-93399568D02*
X121178571Y-93256710D01*
X121178571Y-93256710D02*
X121249999Y-92970996D01*
X121249999Y-92970996D02*
X121249999Y-92470996D01*
X121249999Y-92470996D02*
X121178571Y-92185282D01*
X121178571Y-92185282D02*
X121035714Y-92042425D01*
X121035714Y-92042425D02*
X120892856Y-91970996D01*
X119749999Y-91970996D02*
X119392856Y-93470996D01*
X119392856Y-93470996D02*
X119107142Y-92399568D01*
X119107142Y-92399568D02*
X118821427Y-93470996D01*
X118821427Y-93470996D02*
X118464285Y-91970996D01*
X117178570Y-93470996D02*
X117892856Y-93470996D01*
X117892856Y-93470996D02*
X117892856Y-91970996D01*
X116749998Y-93042425D02*
X116035713Y-93042425D01*
X116892855Y-93470996D02*
X116392855Y-91970996D01*
X116392855Y-91970996D02*
X115892855Y-93470996D01*
X115392856Y-93470996D02*
X115392856Y-91970996D01*
X115392856Y-91970996D02*
X114535713Y-93470996D01*
X114535713Y-93470996D02*
X114535713Y-91970996D01*
X113821427Y-93470996D02*
X113821427Y-91970996D01*
X113821427Y-91970996D02*
X113464284Y-91970996D01*
X113464284Y-91970996D02*
X113249998Y-92042425D01*
X113249998Y-92042425D02*
X113107141Y-92185282D01*
X113107141Y-92185282D02*
X113035712Y-92328139D01*
X113035712Y-92328139D02*
X112964284Y-92613853D01*
X112964284Y-92613853D02*
X112964284Y-92828139D01*
X112964284Y-92828139D02*
X113035712Y-93113853D01*
X113035712Y-93113853D02*
X113107141Y-93256710D01*
X113107141Y-93256710D02*
X113249998Y-93399568D01*
X113249998Y-93399568D02*
X113464284Y-93470996D01*
X113464284Y-93470996D02*
X113821427Y-93470996D01*
X111178570Y-93470996D02*
X111178570Y-91970996D01*
X111178570Y-91970996D02*
X110321427Y-93470996D01*
X110321427Y-93470996D02*
X110321427Y-91970996D01*
X109749998Y-91970996D02*
X108749998Y-91970996D01*
X108749998Y-91970996D02*
X109749998Y-93470996D01*
X109749998Y-93470996D02*
X108749998Y-93470996D01*
X107892855Y-91970996D02*
X107749998Y-91970996D01*
X107749998Y-91970996D02*
X107607141Y-92042425D01*
X107607141Y-92042425D02*
X107535713Y-92113853D01*
X107535713Y-92113853D02*
X107464284Y-92256710D01*
X107464284Y-92256710D02*
X107392855Y-92542425D01*
X107392855Y-92542425D02*
X107392855Y-92899568D01*
X107392855Y-92899568D02*
X107464284Y-93185282D01*
X107464284Y-93185282D02*
X107535713Y-93328139D01*
X107535713Y-93328139D02*
X107607141Y-93399568D01*
X107607141Y-93399568D02*
X107749998Y-93470996D01*
X107749998Y-93470996D02*
X107892855Y-93470996D01*
X107892855Y-93470996D02*
X108035713Y-93399568D01*
X108035713Y-93399568D02*
X108107141Y-93328139D01*
X108107141Y-93328139D02*
X108178570Y-93185282D01*
X108178570Y-93185282D02*
X108249998Y-92899568D01*
X108249998Y-92899568D02*
X108249998Y-92542425D01*
X108249998Y-92542425D02*
X108178570Y-92256710D01*
X108178570Y-92256710D02*
X108107141Y-92113853D01*
X108107141Y-92113853D02*
X108035713Y-92042425D01*
X108035713Y-92042425D02*
X107892855Y-91970996D01*
X106749999Y-93470996D02*
X106749999Y-91970996D01*
X106749999Y-91970996D02*
X106178570Y-91970996D01*
X106178570Y-91970996D02*
X106035713Y-92042425D01*
X106035713Y-92042425D02*
X105964284Y-92113853D01*
X105964284Y-92113853D02*
X105892856Y-92256710D01*
X105892856Y-92256710D02*
X105892856Y-92470996D01*
X105892856Y-92470996D02*
X105964284Y-92613853D01*
X105964284Y-92613853D02*
X106035713Y-92685282D01*
X106035713Y-92685282D02*
X106178570Y-92756710D01*
X106178570Y-92756710D02*
X106749999Y-92756710D01*
X127428571Y-94385912D02*
X126571429Y-94385912D01*
X127000000Y-95885912D02*
X127000000Y-94385912D01*
X126071429Y-95100198D02*
X125571429Y-95100198D01*
X125357143Y-95885912D02*
X126071429Y-95885912D01*
X126071429Y-95885912D02*
X126071429Y-94385912D01*
X126071429Y-94385912D02*
X125357143Y-94385912D01*
X124714286Y-95100198D02*
X124214286Y-95100198D01*
X124000000Y-95885912D02*
X124714286Y-95885912D01*
X124714286Y-95885912D02*
X124714286Y-94385912D01*
X124714286Y-94385912D02*
X124000000Y-94385912D01*
X123357143Y-95885912D02*
X123357143Y-94385912D01*
X123357143Y-94385912D02*
X122500000Y-95885912D01*
X122500000Y-95885912D02*
X122500000Y-94385912D01*
X121857142Y-95814484D02*
X121642857Y-95885912D01*
X121642857Y-95885912D02*
X121285714Y-95885912D01*
X121285714Y-95885912D02*
X121142857Y-95814484D01*
X121142857Y-95814484D02*
X121071428Y-95743055D01*
X121071428Y-95743055D02*
X120999999Y-95600198D01*
X120999999Y-95600198D02*
X120999999Y-95457341D01*
X120999999Y-95457341D02*
X121071428Y-95314484D01*
X121071428Y-95314484D02*
X121142857Y-95243055D01*
X121142857Y-95243055D02*
X121285714Y-95171626D01*
X121285714Y-95171626D02*
X121571428Y-95100198D01*
X121571428Y-95100198D02*
X121714285Y-95028769D01*
X121714285Y-95028769D02*
X121785714Y-94957341D01*
X121785714Y-94957341D02*
X121857142Y-94814484D01*
X121857142Y-94814484D02*
X121857142Y-94671626D01*
X121857142Y-94671626D02*
X121785714Y-94528769D01*
X121785714Y-94528769D02*
X121714285Y-94457341D01*
X121714285Y-94457341D02*
X121571428Y-94385912D01*
X121571428Y-94385912D02*
X121214285Y-94385912D01*
X121214285Y-94385912D02*
X120999999Y-94457341D01*
X120071428Y-95171626D02*
X120071428Y-95885912D01*
X120571428Y-94385912D02*
X120071428Y-95171626D01*
X120071428Y-95171626D02*
X119571428Y-94385912D01*
X118071429Y-94385912D02*
X117714286Y-95885912D01*
X117714286Y-95885912D02*
X117428572Y-94814484D01*
X117428572Y-94814484D02*
X117142857Y-95885912D01*
X117142857Y-95885912D02*
X116785715Y-94385912D01*
X116214286Y-95885912D02*
X116214286Y-94385912D01*
X114642857Y-95885912D02*
X115142857Y-95171626D01*
X115500000Y-95885912D02*
X115500000Y-94385912D01*
X115500000Y-94385912D02*
X114928571Y-94385912D01*
X114928571Y-94385912D02*
X114785714Y-94457341D01*
X114785714Y-94457341D02*
X114714285Y-94528769D01*
X114714285Y-94528769D02*
X114642857Y-94671626D01*
X114642857Y-94671626D02*
X114642857Y-94885912D01*
X114642857Y-94885912D02*
X114714285Y-95028769D01*
X114714285Y-95028769D02*
X114785714Y-95100198D01*
X114785714Y-95100198D02*
X114928571Y-95171626D01*
X114928571Y-95171626D02*
X115500000Y-95171626D01*
X114000000Y-95885912D02*
X114000000Y-94385912D01*
X113285714Y-95885912D02*
X113285714Y-94385912D01*
X113285714Y-94385912D02*
X112428571Y-95885912D01*
X112428571Y-95885912D02*
X112428571Y-94385912D01*
X110928570Y-94457341D02*
X111071428Y-94385912D01*
X111071428Y-94385912D02*
X111285713Y-94385912D01*
X111285713Y-94385912D02*
X111499999Y-94457341D01*
X111499999Y-94457341D02*
X111642856Y-94600198D01*
X111642856Y-94600198D02*
X111714285Y-94743055D01*
X111714285Y-94743055D02*
X111785713Y-95028769D01*
X111785713Y-95028769D02*
X111785713Y-95243055D01*
X111785713Y-95243055D02*
X111714285Y-95528769D01*
X111714285Y-95528769D02*
X111642856Y-95671626D01*
X111642856Y-95671626D02*
X111499999Y-95814484D01*
X111499999Y-95814484D02*
X111285713Y-95885912D01*
X111285713Y-95885912D02*
X111142856Y-95885912D01*
X111142856Y-95885912D02*
X110928570Y-95814484D01*
X110928570Y-95814484D02*
X110857142Y-95743055D01*
X110857142Y-95743055D02*
X110857142Y-95243055D01*
X110857142Y-95243055D02*
X111142856Y-95243055D01*
X127464284Y-97872257D02*
X126749999Y-97872257D01*
X127607141Y-98300828D02*
X127107141Y-96800828D01*
X127107141Y-96800828D02*
X126607141Y-98300828D01*
X125249999Y-98157971D02*
X125321427Y-98229400D01*
X125321427Y-98229400D02*
X125535713Y-98300828D01*
X125535713Y-98300828D02*
X125678570Y-98300828D01*
X125678570Y-98300828D02*
X125892856Y-98229400D01*
X125892856Y-98229400D02*
X126035713Y-98086542D01*
X126035713Y-98086542D02*
X126107142Y-97943685D01*
X126107142Y-97943685D02*
X126178570Y-97657971D01*
X126178570Y-97657971D02*
X126178570Y-97443685D01*
X126178570Y-97443685D02*
X126107142Y-97157971D01*
X126107142Y-97157971D02*
X126035713Y-97015114D01*
X126035713Y-97015114D02*
X125892856Y-96872257D01*
X125892856Y-96872257D02*
X125678570Y-96800828D01*
X125678570Y-96800828D02*
X125535713Y-96800828D01*
X125535713Y-96800828D02*
X125321427Y-96872257D01*
X125321427Y-96872257D02*
X125249999Y-96943685D01*
X123749999Y-98157971D02*
X123821427Y-98229400D01*
X123821427Y-98229400D02*
X124035713Y-98300828D01*
X124035713Y-98300828D02*
X124178570Y-98300828D01*
X124178570Y-98300828D02*
X124392856Y-98229400D01*
X124392856Y-98229400D02*
X124535713Y-98086542D01*
X124535713Y-98086542D02*
X124607142Y-97943685D01*
X124607142Y-97943685D02*
X124678570Y-97657971D01*
X124678570Y-97657971D02*
X124678570Y-97443685D01*
X124678570Y-97443685D02*
X124607142Y-97157971D01*
X124607142Y-97157971D02*
X124535713Y-97015114D01*
X124535713Y-97015114D02*
X124392856Y-96872257D01*
X124392856Y-96872257D02*
X124178570Y-96800828D01*
X124178570Y-96800828D02*
X124035713Y-96800828D01*
X124035713Y-96800828D02*
X123821427Y-96872257D01*
X123821427Y-96872257D02*
X123749999Y-96943685D01*
X123107142Y-97515114D02*
X122607142Y-97515114D01*
X122392856Y-98300828D02*
X123107142Y-98300828D01*
X123107142Y-98300828D02*
X123107142Y-96800828D01*
X123107142Y-96800828D02*
X122392856Y-96800828D01*
X121821427Y-98229400D02*
X121607142Y-98300828D01*
X121607142Y-98300828D02*
X121249999Y-98300828D01*
X121249999Y-98300828D02*
X121107142Y-98229400D01*
X121107142Y-98229400D02*
X121035713Y-98157971D01*
X121035713Y-98157971D02*
X120964284Y-98015114D01*
X120964284Y-98015114D02*
X120964284Y-97872257D01*
X120964284Y-97872257D02*
X121035713Y-97729400D01*
X121035713Y-97729400D02*
X121107142Y-97657971D01*
X121107142Y-97657971D02*
X121249999Y-97586542D01*
X121249999Y-97586542D02*
X121535713Y-97515114D01*
X121535713Y-97515114D02*
X121678570Y-97443685D01*
X121678570Y-97443685D02*
X121749999Y-97372257D01*
X121749999Y-97372257D02*
X121821427Y-97229400D01*
X121821427Y-97229400D02*
X121821427Y-97086542D01*
X121821427Y-97086542D02*
X121749999Y-96943685D01*
X121749999Y-96943685D02*
X121678570Y-96872257D01*
X121678570Y-96872257D02*
X121535713Y-96800828D01*
X121535713Y-96800828D02*
X121178570Y-96800828D01*
X121178570Y-96800828D02*
X120964284Y-96872257D01*
X120392856Y-98229400D02*
X120178571Y-98300828D01*
X120178571Y-98300828D02*
X119821428Y-98300828D01*
X119821428Y-98300828D02*
X119678571Y-98229400D01*
X119678571Y-98229400D02*
X119607142Y-98157971D01*
X119607142Y-98157971D02*
X119535713Y-98015114D01*
X119535713Y-98015114D02*
X119535713Y-97872257D01*
X119535713Y-97872257D02*
X119607142Y-97729400D01*
X119607142Y-97729400D02*
X119678571Y-97657971D01*
X119678571Y-97657971D02*
X119821428Y-97586542D01*
X119821428Y-97586542D02*
X120107142Y-97515114D01*
X120107142Y-97515114D02*
X120249999Y-97443685D01*
X120249999Y-97443685D02*
X120321428Y-97372257D01*
X120321428Y-97372257D02*
X120392856Y-97229400D01*
X120392856Y-97229400D02*
X120392856Y-97086542D01*
X120392856Y-97086542D02*
X120321428Y-96943685D01*
X120321428Y-96943685D02*
X120249999Y-96872257D01*
X120249999Y-96872257D02*
X120107142Y-96800828D01*
X120107142Y-96800828D02*
X119749999Y-96800828D01*
X119749999Y-96800828D02*
X119535713Y-96872257D01*
X118607142Y-96800828D02*
X118321428Y-96800828D01*
X118321428Y-96800828D02*
X118178571Y-96872257D01*
X118178571Y-96872257D02*
X118035714Y-97015114D01*
X118035714Y-97015114D02*
X117964285Y-97300828D01*
X117964285Y-97300828D02*
X117964285Y-97800828D01*
X117964285Y-97800828D02*
X118035714Y-98086542D01*
X118035714Y-98086542D02*
X118178571Y-98229400D01*
X118178571Y-98229400D02*
X118321428Y-98300828D01*
X118321428Y-98300828D02*
X118607142Y-98300828D01*
X118607142Y-98300828D02*
X118750000Y-98229400D01*
X118750000Y-98229400D02*
X118892857Y-98086542D01*
X118892857Y-98086542D02*
X118964285Y-97800828D01*
X118964285Y-97800828D02*
X118964285Y-97300828D01*
X118964285Y-97300828D02*
X118892857Y-97015114D01*
X118892857Y-97015114D02*
X118750000Y-96872257D01*
X118750000Y-96872257D02*
X118607142Y-96800828D01*
X116464285Y-98300828D02*
X116964285Y-97586542D01*
X117321428Y-98300828D02*
X117321428Y-96800828D01*
X117321428Y-96800828D02*
X116749999Y-96800828D01*
X116749999Y-96800828D02*
X116607142Y-96872257D01*
X116607142Y-96872257D02*
X116535713Y-96943685D01*
X116535713Y-96943685D02*
X116464285Y-97086542D01*
X116464285Y-97086542D02*
X116464285Y-97300828D01*
X116464285Y-97300828D02*
X116535713Y-97443685D01*
X116535713Y-97443685D02*
X116607142Y-97515114D01*
X116607142Y-97515114D02*
X116749999Y-97586542D01*
X116749999Y-97586542D02*
X117321428Y-97586542D01*
X115535713Y-97586542D02*
X115535713Y-98300828D01*
X116035713Y-96800828D02*
X115535713Y-97586542D01*
X115535713Y-97586542D02*
X115035713Y-96800828D01*
X113392857Y-98300828D02*
X113392857Y-96800828D01*
X113392857Y-96800828D02*
X112821428Y-96800828D01*
X112821428Y-96800828D02*
X112678571Y-96872257D01*
X112678571Y-96872257D02*
X112607142Y-96943685D01*
X112607142Y-96943685D02*
X112535714Y-97086542D01*
X112535714Y-97086542D02*
X112535714Y-97300828D01*
X112535714Y-97300828D02*
X112607142Y-97443685D01*
X112607142Y-97443685D02*
X112678571Y-97515114D01*
X112678571Y-97515114D02*
X112821428Y-97586542D01*
X112821428Y-97586542D02*
X113392857Y-97586542D01*
X111035714Y-98157971D02*
X111107142Y-98229400D01*
X111107142Y-98229400D02*
X111321428Y-98300828D01*
X111321428Y-98300828D02*
X111464285Y-98300828D01*
X111464285Y-98300828D02*
X111678571Y-98229400D01*
X111678571Y-98229400D02*
X111821428Y-98086542D01*
X111821428Y-98086542D02*
X111892857Y-97943685D01*
X111892857Y-97943685D02*
X111964285Y-97657971D01*
X111964285Y-97657971D02*
X111964285Y-97443685D01*
X111964285Y-97443685D02*
X111892857Y-97157971D01*
X111892857Y-97157971D02*
X111821428Y-97015114D01*
X111821428Y-97015114D02*
X111678571Y-96872257D01*
X111678571Y-96872257D02*
X111464285Y-96800828D01*
X111464285Y-96800828D02*
X111321428Y-96800828D01*
X111321428Y-96800828D02*
X111107142Y-96872257D01*
X111107142Y-96872257D02*
X111035714Y-96943685D01*
X109892857Y-97515114D02*
X109678571Y-97586542D01*
X109678571Y-97586542D02*
X109607142Y-97657971D01*
X109607142Y-97657971D02*
X109535714Y-97800828D01*
X109535714Y-97800828D02*
X109535714Y-98015114D01*
X109535714Y-98015114D02*
X109607142Y-98157971D01*
X109607142Y-98157971D02*
X109678571Y-98229400D01*
X109678571Y-98229400D02*
X109821428Y-98300828D01*
X109821428Y-98300828D02*
X110392857Y-98300828D01*
X110392857Y-98300828D02*
X110392857Y-96800828D01*
X110392857Y-96800828D02*
X109892857Y-96800828D01*
X109892857Y-96800828D02*
X109750000Y-96872257D01*
X109750000Y-96872257D02*
X109678571Y-96943685D01*
X109678571Y-96943685D02*
X109607142Y-97086542D01*
X109607142Y-97086542D02*
X109607142Y-97229400D01*
X109607142Y-97229400D02*
X109678571Y-97372257D01*
X109678571Y-97372257D02*
X109750000Y-97443685D01*
X109750000Y-97443685D02*
X109892857Y-97515114D01*
X109892857Y-97515114D02*
X110392857Y-97515114D01*
M02*
